<?xml version="1.0" encoding="utf-8"?>
<!-- Generator: Adobe Illustrator 22.0.1, SVG Export Plug-In . SVG Version: 6.00 Build 0)  -->
<svg version="1.1" id="Calque_1" xmlns="http://www.w3.org/2000/svg" xmlns:xlink="http://www.w3.org/1999/xlink" x="0px" y="0px"
	 viewBox="0 0 48 48" style="enable-background:new 0 0 48 48;" xml:space="preserve">
<title>ic_Niveau_avance</title>
<path d="M45.4,38L27.2,19.8C29,15,27.9,9.6,24.2,6c-3.9-3.9-9.8-4.9-14.8-2.6L18,12l-6,6L3.2,9.4c-2.4,5-1.4,10.9,2.6,14.8
	c3.6,3.7,9,4.8,13.8,3l18.2,18.2c0.7,0.8,2,0.8,2.7,0.1c0,0,0,0,0,0l0.1-0.1l4.6-4.6c0.8-0.6,1-1.7,0.5-2.5
	C45.6,38.2,45.5,38.1,45.4,38z"/>
</svg>
