<?xml version="1.0" encoding="utf-8"?>
<!-- Generator: Adobe Illustrator 22.0.1, SVG Export Plug-In . SVG Version: 6.00 Build 0)  -->
<svg version="1.1" id="Calque_1" xmlns="http://www.w3.org/2000/svg" xmlns:xlink="http://www.w3.org/1999/xlink" x="0px" y="0px"
	 viewBox="0 0 24.2 20.7" style="enable-background:new 0 0 24.2 20.7;" xml:space="preserve">
<style type="text/css">
	.st0{fill:none;stroke:#000000;stroke-miterlimit:10;}
</style>
<title>ic_integrer_outil_decouverte</title>
<path class="st0" d="M20.5,0.5h-18c-1.1,0-2,0.9-2,2v12c0,1.1,0.9,2,2,2h5v2h8v-2h2v-2h-15v-12h18v8h2v-8
	C22.5,1.4,21.6,0.5,20.5,0.5z M12.5,7.5v-3h-2v3h-3v2h3v3h2v-3h3v-2H12.5z M23.5,15.5L19,20l-1.5-1.5l3-3l-3-3L19,11L23.5,15.5z"/>
</svg>
