<?xml version="1.0" encoding="utf-8"?>
<!-- Generator: Adobe Illustrator 21.1.0, SVG Export Plug-In . SVG Version: 6.00 Build 0)  -->
<svg version="1.1" id="Calque_1" xmlns="http://www.w3.org/2000/svg" xmlns:xlink="http://www.w3.org/1999/xlink" x="0px" y="0px"
	 viewBox="0 0 113.4 153.7" style="enable-background:new 0 0 113.4 153.7;" xml:space="preserve">
<style type="text/css">
	.st0{fill:#FFFFFF;}
	.st1{fill:#164194;}
	.st2{fill:#E30613;}
	.st3{fill:#9D9D9C;}
</style>
<g>
	<g>
		<g>
			<rect x="0.5" y="0.5" class="st0" width="112.4" height="75"/>
			<path d="M113.4,75.9H0V0h113.4V75.9z M0.9,75h111.5v-74H0.9V75z"/>
		</g>
		<g>
			<g>
				<rect x="17.2" y="15.5" class="st0" width="78.9" height="26.7"/>
				<path class="st1" d="M40.8,32c-0.7,0.2-1.5,0.2-2.1,0.6c1.6-0.1,3.1,0.2,4.6,0.7c0.5,0.2,1,0.4,1.5,0.7c0.2,0.2,0.4,0.4,0.6,0.5
					c0.3,0.2,0.7,0.2,1,0.1h0.3c0.9-0.2,1.9-0.5,2.5-1.1c0,0.1,0.1,0.1,0.1,0.1c-0.2,0.5-0.2,1-0.5,1.5c0,0.1-0.1,0.2,0.1,0.2H49
					c-0.1,0-0.1,0-0.1,0.1c0,0.1,0.2,0,0.2,0.1c-0.3,0.1-0.6,0.1-0.8,0.4c0,0.1,0.1,0.1,0.2,0.1c-0.1,0.1-0.3,0.1-0.4,0.2
					c0,0,0.1,0.1,0.1,0.1c-0.1,0-0.1,0-0.1,0.1v0.2c-0.2,0-0.2,0.1-0.4,0.2c0.2,0.2,0.4,0,0.7,0c-0.7,0.2-1.2,0.6-1.9,0.8
					c-0.1,0,0,0.2-0.1,0.2c0.2,0.1,0.3-0.1,0.5-0.1c-0.8,0.5-1.7,0.9-2.6,1.5c0,0-0.1,0.1-0.1,0.2H44c-0.1,0.1-0.1,0.2-0.2,0.4
					c0.3,0.2,0.7-0.2,0.8,0c0.1,0-0.1,0.1-0.2,0.1c-0.1,0-0.1,0.1-0.1,0.1h-0.2c-0.1,0.1-0.2,0.2-0.2,0.4c-0.1,0-0.2,0-0.3,0.1
					c1.3-0.2,2.7-0.1,4-0.7c1-0.5,1.9-1.2,2.7-2c0,0,0.1,0.1,0.1,0.1c-0.2,0.6-0.5,1-1,1.4c-0.4,0.2-0.6,0.5-0.9,0.6
					c-0.2,0.1-0.4,0.2-0.5,0.4c-2.2,0.8-4.9,0.4-6.8,1.9c0-0.1-0.1-0.1-0.1-0.1c-0.1,0.1-0.3,0.2-0.4,0.3c0,0.1,0.2,0.1,0.2,0.1
					c0.4-0.2,0.7-0.4,1.1-0.5c-0.5,0.2-0.9,0.7-1.4,0.7h-3c0.6-0.4,1.2-0.8,1.9-1.1C39.1,41,38.9,41,38.7,41c-0.3,0.1-0.7-0.1-1,0
					c-0.9,0.4-2.1,0.3-2.6,1.3H17.2V15.5h35.8c-0.7,0.4-1.4,0.6-1.9,1.3c-0.5,0.6-1,1.2-1.1,1.9c-0.8,0.5-1.3,1.2-1.7,1.9
					c-0.5,1-1.3,1.9-1.2,3.1c0.1,1,0.4,1.9,0.5,2.9c0.1,0.4,0.1,0.7,0.2,1c0.1,0.4,0,0.8,0.2,1.1c0.1,0.2,0.1,0.4,0.3,0.5v0.2
					c0.1,0.1,0.1,0.1,0.2,0.1v0.2c0.5,0.6,1.1,1.1,1.4,1.8c0.1,0.4-0.6,0.2-0.9,0.1c-0.6-0.3-1-0.8-1.4-1.2c0,0-0.1,0.1-0.1,0.1
					c0.2,0.4,1.2,1,0.7,1.3c-0.2,0.1-0.5-0.2-0.8,0.1c-0.1,0.1,0,0.2,0,0.4c-0.4-0.2-0.7-0.1-1.1-0.2c-0.2-0.1-0.3-0.5-0.6-0.5
					c-0.8-0.2-1.5-0.4-2.3-0.4c-1.1-0.1-2.1-0.3-3.2-0.1c-1,0.1-1.7,0.8-2.3,1.5v0.2c0.4,0,0.6-0.3,1-0.4c0.6-0.1,1.1-0.4,1.7-0.5
					c0.9-0.2,1.7-0.4,2.6-0.4c0.2,0,0.4-0.1,0.6,0C42.8,31.4,41.8,31.7,40.8,32"/>
				<path class="st0" d="M37.4,34.9c-0.2,0.1-0.4,0.2-0.3,0.3c0.2,0.2,0.5-0.1,0.8-0.1c-0.4,0.1-0.8,0.1-1.1,0.4
					c0.2,0.2,0.5,0.1,0.7,0.1c0,0.1,0.1,0.1,0.2,0.2c-0.3,0.1-0.5,0.4-0.6,0.5c-0.1,0.3-0.4,0.4-0.6,0.7v0.2
					c-0.6,0.5-1.3,0.9-1.8,1.6c0.1,0,0.1,0.1,0.1,0.1c-0.1,0.2-0.4,0.2-0.4,0.4c0,0.1,0,0.1,0.1,0.1c0.7-0.2,1.3-0.8,1.9-1
					c0.5-0.1,0.8-0.4,1.3-0.5c0.3-0.1,0.7-0.2,1-0.2c0,0.1,0,0.1,0,0.1h0.5c-0.1,0.1-0.3,0.1-0.2,0.1c0.2,0.2,0.5,0.1,0.8,0
					c0.2-0.1,0.4-0.1,0.6-0.1c0.1,0,0.1-0.1,0.1-0.2c0.2,0.1,0.3,0.1,0.5,0.1c1.5-0.3,2.8-0.6,4.2-1.3c-1.6-1.2-3.6-1.6-5.4-2.2
					c0.2,0,0.4,0.2,0.5,0c-0.3-0.2-0.7-0.1-1-0.3c0.1,0,0.2,0.1,0.2-0.1c-0.5-0.3-1-0.3-1.5-0.4c0.3-0.1,0.5-0.3,0.5-0.6
					c0-0.1-0.1-0.1-0.2-0.1c-0.7,0.4-1.2,1-1.5,1.8c0.4,0.2,0.9,0.1,1.3,0.1C37.9,34.8,37.6,34.8,37.4,34.9"/>
				<path class="st0" d="M34.9,32.5c-0.6,0.7-1.3,1.3-2.1,1.7c-0.5,1.1-1.1,2.1-1.9,3.1c0,0.1,0.1,0.1,0.1,0.1
					c1.4-1.6,2.8-3,4.6-4.2c0.1-0.1-0.2,0.2,0.1,0.1c0.8-0.2,1-1,1.4-1.6c0.5-0.8,1.3-1.1,1.9-1.7c0,0.1,0,0.1-0.1,0.2
					c0.1,0.1,0.1,0.1,0.2,0.1c0.3-0.2,0.5-0.1,0.7-0.4c-0.5-0.2-1.1-0.2-1.6-0.1C37,30.5,36,31.4,34.9,32.5"/>
				<path class="st0" d="M35.8,33.7c0.1-0.1,0.1-0.1,0.2-0.2c0-0.1,0-0.1-0.1-0.1c-0.2,0.1-0.4,0.3-0.5,0.5c0,0.1,0.1,0.1,0.1,0.1
					C35.7,33.8,35.8,33.8,35.8,33.7"/>
				<path class="st0" d="M40.7,38.2c-0.2,0.1-0.7,0.1-0.7,0.4c-0.1,0.1,0.2,0.1,0.3,0.1c0.4-0.2,0.9,0,1.3-0.4
					c-0.1-0.1-0.3-0.1-0.4-0.2C41,38.1,40.8,38.2,40.7,38.2"/>
				<path class="st1" d="M47.2,41.4c0.4-0.1,0.7-0.3,1.1-0.4v0.1c0.9-0.4,1.6-1.1,2.5-1.4c0.1,0,0.2,0.1,0.3,0.1
					c0.5-0.5,1.1-1,1.9-0.9c0,0.1,0,0.1,0.1,0.1c0.1,0,0.1,0,0.1-0.1c-0.2,0.2-0.5,0.4-0.7,0.5c-0.1,0.1,0,0.1,0.1,0.1
					c0.3-0.1,0.5-0.4,0.8-0.5c-0.1,0.1-0.1,0.2-0.1,0.2c-1.1,0.8-2.9,2.9-2.9,2.9H42c1.2-0.2,2.4-0.6,3.6-0.7
					C46.1,41.5,46.6,41.6,47.2,41.4"/>
				<path class="st2" d="M71,38.4c0.1-0.4,0.3-0.9,0.1-1.3c-0.4-0.5,0.4-0.7,0.6-1.1c0.2-0.3-0.1-0.5-0.2-0.8
					c-0.1-0.1-0.3-0.1-0.4-0.2c0.4-0.2,1.1-0.5,0.8-1.1c-0.2-0.3-0.5-0.8-0.1-1.1c0.4-0.2,1.1-0.2,1.3-0.6c0.3-0.7-0.4-1.3-0.7-1.9
					c-0.2-0.4-0.4-0.6-0.7-1c-0.2-0.4-0.5-0.8-0.7-1.3c-0.2-0.5,0.1-0.9,0.1-1.4c0.1-0.9-0.2-1.8-0.4-2.7c-0.2-0.4-0.2-0.9-0.4-1.3
					c-0.1-0.2-0.1-0.5-0.3-0.7c-0.1-0.1-0.1-0.3,0-0.4c0.2-0.2,0.5-0.4,0.7-0.6c0.2-0.3,0.1-0.7-0.2-0.9c-0.4-0.2-0.4,0.4-0.7,0.5
					h-0.2c-0.1-0.2,0.1-0.2,0.2-0.4c0-0.1,0-0.2-0.1-0.2c-0.2,0-0.5-0.1-0.5-0.2c-0.6-0.8-1.4-1.3-2.3-1.6c0.2,0.1,0.5,0.1,0.7,0.1
					c0.4,0.1,0.9,0.1,1.3-0.1c0.3-0.1,0.4-0.6,0.5-0.9c0.1-0.2-0.1-0.6-0.2-0.8c-0.3-0.5-1.2-1-1.2-1h28.4l0,26.7H62.3
					c0.4-1.2,1-2.4,2.1-3.1c0.2-0.1,0.5-0.2,0.8-0.2c1,0,2,0.3,3.1,0.4c0.1,0,0.2,0.1,0.4,0.1c0.4,0.1,0.8,0.1,1.1-0.1
					C70.3,39.2,70.8,39,71,38.4"/>
				<path class="st3" d="M68.7,26.5c-0.4-0.1-0.7,0-1,0c-0.5,0.1-0.9,0.2-1.3,0.4c0.4-0.2,0.7-0.5,1.1-0.6c0.3-0.1,0.6-0.2,0.9-0.2
					c0.4-0.1,0.7-0.2,1-0.1c0.3,0.1,0.8,0.1,0.8,0.3c0.1,0.4-0.2,0.7-0.5,1c-0.1,0.1,0.2,0.2,0.2,0.3c-0.1,0.1-0.2,0.2-0.4,0.2
					c-0.1,0.1-0.2,0.2-0.4,0.4c0.1,0,0,0.2,0.1,0.2c-0.2,0.3,0.1,0.9-0.2,1c-0.4,0.1-0.9,0.1-1.4,0c0.2-0.1,0.5,0.1,0.7-0.2v-0.2
					c0-0.1-0.1-0.1-0.1-0.1c-0.1,0.1-0.1,0.1-0.1,0.1c0-0.1-0.1-0.2-0.2-0.2c-0.4,0.1-0.7-0.1-0.9-0.4c0.2-0.1,0.4-0.1,0.5-0.1
					c0.2,0,0.1-0.3,0.3-0.4h0.2c0.4-0.5,1.1-0.6,1.2-1.1C69.3,26.6,68.9,26.6,68.7,26.5"/>
			</g>
			<g>
				<path d="M21.3,61c-0.3,0-0.5,0-0.6-0.1c-0.3-0.2-0.5-0.6-0.7-0.9c-0.3-0.5-0.6-1-0.9-1.4c0,0-0.1,0-0.1,0c-0.1,0-0.1,0-0.2,0
					v0.4c0,0.2,0,0.4,0,0.6c0,0.4,0,0.6,0.1,0.8c0.1,0.2,0.2,0.3,0.5,0.3v0.2l-0.2,0c-0.2,0-0.5,0-0.9,0c-0.4,0-0.6,0-0.9,0l-0.2,0
					v-0.2c0.2,0,0.3-0.1,0.4-0.2c0.1-0.1,0.1-0.3,0.2-0.4c0-0.2,0-0.4,0-1.2v-1.3c0-1,0-1.2-0.1-1.4c-0.1-0.2-0.2-0.3-0.5-0.3v-0.2
					c0.2,0,0.3,0,0.5,0c0.4,0,0.5,0,1,0c0.4,0,0.7,0,0.9,0c0.5,0,0.9,0.1,1.1,0.3c0.3,0.2,0.5,0.6,0.5,1c0,0.7-0.4,1.2-1.2,1.4
					c0.3,0.4,0.5,0.8,0.8,1.2c0.2,0.4,0.5,0.8,0.7,0.9c0.1,0.1,0.2,0.2,0.3,0.2v0.2C21.7,60.9,21.5,61,21.3,61 M19.2,56
					c-0.2,0-0.3,0-0.5,0.1c0,0.5,0,1.3,0,2c0.1,0,0.2,0,0.3,0c0.6,0,1.1-0.4,1.1-1C20.2,56.5,19.8,56,19.2,56"/>
				<path d="M23.9,56.1L23.5,56l0.6-1l0.7,0.1L23.9,56.1z M25.3,60.8c-0.1,0.1-0.1,0.1-0.5,0.1c-0.2,0-0.4,0-0.7,0
					c-0.3,0-0.6,0-0.9,0c-0.3,0-0.6,0-0.9,0v-0.2c0.3,0,0.4-0.2,0.4-0.5c0-0.2,0-0.4,0-0.7v-1.8c0-0.3,0-0.5-0.1-0.6
					c-0.1-0.2-0.2-0.2-0.4-0.3v-0.2h3c0,0.2,0,0.4,0,0.6c0,0.2,0,0.3,0,0.5h-0.2c0-0.5-0.3-0.6-1-0.6c-0.1,0-0.3,0-0.5,0
					c0,0.3,0,0.3,0,0.7v0.8c0.1,0,0.2,0,0.3,0c0.7,0,0.9-0.1,0.9-0.4H25c0,0.1,0,0.3,0,0.6c0,0.3,0,0.5,0,0.6h-0.2
					c0-0.4-0.2-0.5-0.9-0.5c-0.1,0-0.2,0-0.4,0c0,0.4,0,0.8,0,1.2c0,0.3,0,0.4,0.2,0.4c0.1,0,0.2,0,0.4,0c0.7,0,0.9-0.2,1.1-0.7
					l0.2,0C25.5,60.3,25.4,60.7,25.3,60.8"/>
				<path d="M28,59c-0.1,0-0.1,0-0.2,0l-0.1-0.3c0.6,0,0.9-0.3,0.9-0.8c0-0.5-0.4-0.9-0.8-0.9c-0.1,0-0.1,0-0.2,0c0,0.4,0,0.8,0,1.2
					v1.1c0,0.9,0,1,0.1,1.2c0.1,0.2,0.2,0.2,0.4,0.3v0.2l-0.2,0c-0.2,0-0.4,0-0.7,0c-0.3,0-0.5,0-0.7,0l-0.2,0v-0.2
					c0.3,0,0.4-0.2,0.5-0.5c0-0.2,0-0.3,0-1v-1.6c0-0.3,0-0.5-0.1-0.6c-0.1-0.2-0.2-0.2-0.4-0.3v-0.2c0.1,0,0,0,0.3,0
					c0.1,0,0.3,0,0.5,0c0.3,0,0.7,0,1,0c0.9,0,1.5,0.5,1.5,1.2C29.5,58.5,28.9,59,28,59"/>
				<path d="M33.9,56.9c-0.1,0.1-0.1,0.2-0.1,0.5c0,0.3,0,0.5,0,0.9c0,0.1,0,0.6,0,1c0,0.5-0.1,0.7-0.3,1c-0.3,0.4-0.8,0.7-1.4,0.7
					c-0.4,0-0.7-0.1-1-0.3c-0.5-0.3-0.6-0.7-0.6-1.4c0-0.7,0-1,0-1.2c0-0.3,0-0.7,0-1c0-0.2-0.2-0.3-0.4-0.4v-0.2h0.1
					c0.2,0,0.4,0,0.7,0c0.3,0,0.6,0,0.7,0h0.2v0.2c-0.2,0-0.3,0.1-0.4,0.2c-0.1,0.1-0.1,0.2-0.1,0.5c0,0.4,0,0.8,0,1.2
					c0,1.1,0,1.3,0.2,1.6c0.2,0.2,0.4,0.3,0.7,0.3c0.4,0,0.9-0.2,1-0.6c0.1-0.3,0.1-0.5,0.1-1.2V58c0-0.7,0-1-0.1-1.1
					c-0.1-0.1-0.2-0.2-0.3-0.2v-0.2c0.3,0,0.4,0,0.7,0c0.3,0,0.4,0,0.7,0v0.2C34.1,56.8,34,56.8,33.9,56.9"/>
				<path d="M37.9,60.6c-0.3,0.2-0.6,0.3-1.3,0.3c-0.4,0-0.7,0-1.1,0c-0.1,0-0.4,0-0.6,0l-0.1,0v-0.2c0.3,0,0.4-0.2,0.4-0.5
					c0-0.2,0-0.3,0-1V58c0-0.6,0-0.9-0.1-1c-0.1-0.2-0.2-0.2-0.4-0.3v-0.2c0.3,0,0.5,0,0.9,0c0.4,0,0.9,0,1.3,0c0.6,0,1.1,0.3,1.1,1
					c0,0.5-0.3,0.8-0.9,1c0.7,0.1,1,0.5,1,1.2C38.3,60.1,38.2,60.4,37.9,60.6 M36.5,56.9c-0.1,0-0.2,0-0.4,0c0,0.4,0,1.1,0,1.4
					c0.1,0,0.2,0,0.3,0c0.6,0,1-0.3,1-0.7C37.4,57.2,37.1,56.9,36.5,56.9 M36.5,58.7c-0.1,0-0.2,0-0.4,0c0,0.2,0,0.2,0,0.5v0.4
					c0,0.4,0,0.6,0.1,0.7c0,0.2,0.2,0.2,0.5,0.2c0.6,0,0.9-0.3,0.9-0.9C37.5,59.1,37.1,58.7,36.5,58.7"/>
				<path d="M42,60.8c-0.1,0.1-0.1,0.1-0.5,0.1c-0.2,0-0.3,0-0.5,0c-0.4,0-0.8,0-1.2,0c-0.3,0-0.6,0-0.7,0v-0.2c0.2,0,0.2,0,0.3-0.1
					c0.1-0.1,0.1-0.3,0.1-0.8v-0.9v-0.7c0-0.9,0-1-0.1-1.2c-0.1-0.2-0.2-0.2-0.4-0.3v-0.2l0.2,0c0.2,0,0.4,0,0.7,0
					c0.3,0,0.6,0,0.7,0l0.2,0v0.2c-0.3,0-0.5,0.2-0.5,0.5c0,0.1,0,0.2,0,0.9v1.1c0,0.9,0,1,0.1,1.1c0.1,0.1,0.2,0.1,0.5,0.1
					c0.4,0,0.6,0,0.7-0.1c0.2-0.1,0.3-0.3,0.4-0.6l0.2,0.1C42.2,60.2,42.1,60.7,42,60.8"/>
				<path d="M44.3,60.9c-0.2,0-0.4,0-0.7,0c-0.3,0-0.5,0-0.7,0l-0.2,0v-0.2c0.3,0,0.4-0.2,0.4-0.5c0-0.2,0-0.3,0-1v-1.1
					c0-0.2,0-0.3,0-0.5c0-0.3,0-0.5-0.1-0.6c-0.1-0.2-0.2-0.2-0.4-0.3v-0.2l0.2,0c0.2,0,0.4,0,0.7,0c0.3,0,0.5,0,0.7,0l0.2,0v0.2
					c-0.3,0-0.4,0.2-0.4,0.5c0,0.2,0,0.4,0,0.9v1.1c0,0.9,0,1,0.1,1.2c0.1,0.2,0.2,0.2,0.4,0.3v0.2L44.3,60.9z"/>
				<path d="M50.3,62.1c-0.5,0-1-0.2-1.6-0.4c-0.3-0.2-0.7-0.4-1-0.7c-0.2,0-0.3,0-0.5,0c-1.3,0-2.2-0.9-2.2-2.2
					c0-1.4,0.9-2.3,2.3-2.3c1.3,0,2.2,0.9,2.2,2.1c0,0.9-0.5,1.7-1.2,2.1c0.2,0.1,0.5,0.2,0.7,0.4c0.7,0.4,1.1,0.6,1.5,0.6
					c0.3,0,0.5-0.1,0.7-0.2l0.1,0.2C51.2,61.9,50.8,62.1,50.3,62.1 M47.3,56.9c-0.8,0-1.4,0.7-1.4,1.6c0,1.1,0.7,2,1.5,2
					c0.8,0,1.4-0.7,1.4-1.6C48.8,57.8,48.1,56.9,47.3,56.9"/>
				<path d="M54.1,56.9C54,57,54,57.1,54,57.4c0,0.3,0,0.5,0,0.9c0,0.1,0,0.6,0,1c0,0.5-0.1,0.7-0.3,1c-0.3,0.4-0.8,0.7-1.4,0.7
					c-0.4,0-0.7-0.1-1-0.3c-0.4-0.3-0.6-0.7-0.6-1.4c0-0.7,0-1,0-1.2c0-0.3,0-0.7,0-1c0-0.2-0.2-0.3-0.4-0.4v-0.2h0.1
					c0.2,0,0.4,0,0.7,0c0.3,0,0.6,0,0.7,0h0.1v0.2c-0.2,0-0.3,0.1-0.4,0.2c-0.1,0.1-0.1,0.2-0.1,0.5c0,0.4,0,0.8,0,1.2
					c0,1.1,0,1.3,0.2,1.6c0.2,0.2,0.4,0.3,0.7,0.3c0.4,0,0.9-0.2,1-0.6c0.1-0.3,0.1-0.5,0.1-1.2V58c0-0.7,0-1-0.1-1.1
					c-0.1-0.1-0.2-0.2-0.3-0.2v-0.2c0.3,0,0.4,0,0.7,0c0.3,0,0.4,0,0.7,0v0.2C54.3,56.8,54.2,56.8,54.1,56.9"/>
				<path d="M58.1,60.8c-0.1,0.1-0.1,0.1-0.5,0.1c-0.2,0-0.4,0-0.7,0c-0.3,0-0.6,0-0.9,0c-0.3,0-0.6,0-0.9,0v-0.2
					c0.3,0,0.4-0.2,0.5-0.5c0-0.2,0-0.4,0-0.7v-1.8c0-0.3,0-0.5-0.1-0.6c-0.1-0.2-0.2-0.2-0.4-0.3v-0.2h3v0.6c0,0.2,0,0.3,0,0.5
					h-0.2c0-0.5-0.3-0.6-1-0.6c-0.1,0-0.3,0-0.5,0c0,0.3,0,0.3,0,0.7v0.8c0.1,0,0.2,0,0.3,0c0.7,0,0.9-0.1,0.9-0.4h0.2
					c0,0.1,0,0.3,0,0.6c0,0.3,0,0.5,0,0.6h-0.2c0-0.4-0.2-0.5-0.9-0.5c-0.1,0-0.2,0-0.4,0c0,0.4,0,0.8,0,1.2c0,0.3,0,0.4,0.2,0.4
					c0.1,0,0.2,0,0.4,0c0.7,0,0.9-0.2,1.1-0.7l0.3,0C58.3,60.3,58.1,60.7,58.1,60.8"/>
				<path d="M64.1,56.9c0-0.6-0.3-0.8-1.2-0.8c-0.2,0-0.4,0-0.6,0c0,0.5,0,0.9,0,1.8c0.2,0,0.3,0,0.4,0c0.7,0,1-0.1,1-0.5H64
					c0,0.2,0,0.4,0,0.6c0,0.3,0,0.6,0,0.9h-0.3c0-0.5-0.2-0.6-1.1-0.6c-0.1,0-0.2,0-0.3,0v0.9c0,0.2,0,0.4,0,0.6
					c0,0.4,0.1,0.8,0.6,0.8v0.2l-0.2,0c-0.2,0-0.5,0-0.8,0c-0.4,0-0.7,0-0.9,0l-0.2,0v-0.2c0.4,0,0.5-0.2,0.5-0.6c0-0.2,0-0.4,0-1.2
					v-2c0-0.4,0-0.6-0.1-0.8c-0.1-0.2-0.2-0.3-0.5-0.3v-0.2h3.6c0,0.1,0,0.4,0,0.7c0,0.3,0,0.4,0,0.5H64.1z"/>
				<path d="M68.4,61c-0.2,0-0.4,0-0.5-0.1c-0.2-0.1-0.4-0.5-0.6-0.7c-0.2-0.4-0.5-0.8-0.7-1.1c0,0-0.1,0-0.1,0c-0.1,0-0.1,0-0.2,0
					v0.3v0.5c0,0.4,0,0.5,0.1,0.6c0.1,0.2,0.2,0.2,0.4,0.3v0.2l-0.2,0c-0.2,0-0.4,0-0.7,0c-0.3,0-0.5,0-0.7,0l-0.2,0v-0.2
					c0.2,0,0.2,0,0.3-0.1c0.1-0.1,0.1-0.2,0.1-0.4c0-0.2,0-0.3,0-1v-1.1c0-0.8,0-1-0.1-1.2c0-0.2-0.2-0.3-0.4-0.3v-0.2
					c0.1,0,0.3,0,0.4,0c0.3,0,0.4,0,0.8,0c0.3,0,0.6,0,0.7,0c0.4,0,0.7,0.1,0.9,0.2c0.2,0.2,0.4,0.5,0.4,0.8c0,0.5-0.3,1-0.9,1.2
					c0.2,0.3,0.4,0.6,0.7,1c0.2,0.3,0.4,0.6,0.6,0.8c0.1,0.1,0.1,0.1,0.3,0.2v0.2C68.8,60.9,68.6,61,68.4,61 M66.8,56.9
					c-0.1,0-0.2,0-0.4,0.1v1.6c0.1,0,0.2,0,0.3,0c0.5,0,0.9-0.3,0.9-0.8C67.5,57.2,67.2,56.9,66.8,56.9"/>
				<path d="M73.1,60.9c-0.2,0-0.4,0-0.7,0c-0.3,0-0.5,0-0.7,0l-0.2,0v-0.2c0.2,0,0.3-0.1,0.3-0.3c0-0.1,0-0.2-0.1-0.3
					c-0.1-0.2-0.1-0.4-0.2-0.6h-1.2l-0.1,0.4c-0.1,0.3-0.1,0.5-0.1,0.6c0,0.2,0.1,0.3,0.3,0.3v0.2c-0.3,0-0.3,0-0.7,0
					c-0.3,0-0.4,0-0.6,0v-0.2c0.1,0,0.1,0,0.2-0.1c0.1-0.1,0.2-0.3,0.4-0.8l0.6-1.6c0.2-0.4,0.4-1.1,0.6-1.7h0.4
					c0.1,0.2,0.2,0.5,0.3,0.8l0.9,2.3c0.2,0.4,0.3,0.6,0.3,0.8c0.1,0.1,0.2,0.2,0.3,0.3v0.2L73.1,60.9z M71,57.7
					c-0.2,0.4-0.4,1-0.5,1.3h1L71,57.7z"/>
				<path d="M77.7,56.9c-0.1,0.1-0.1,0.2-0.1,0.6c0,0.6,0,1.5,0,1.9v1c0,0.1,0,0.4,0,0.5h-0.4c-0.4-0.5-1.3-1.6-1.3-1.6
					c-0.1-0.1-0.9-1.1-1.3-1.6c0,0.1,0,0.1,0,0.5v0.4c0,0.5,0,1,0,1.5c0,0.3,0,0.4,0.1,0.5c0.1,0.1,0.2,0.2,0.4,0.2v0.2
					c-0.2,0-0.5,0-0.7,0c-0.2,0-0.5,0-0.7,0v-0.2c0.4,0,0.4-0.4,0.5-0.7c0-0.3,0-0.5,0-0.9v-1.4c0-0.5,0-0.7-0.1-0.8
					c-0.1-0.1-0.2-0.1-0.3-0.2v-0.2c0.2,0,0.3,0,0.6,0c0.3,0,0.3,0,0.6,0c0.1,0.1,0.2,0.3,0.7,0.8c0.6,0.8,1.2,1.4,1.7,2.1v-1.4
					c0-0.6,0-0.8,0-1c0-0.2-0.2-0.3-0.4-0.3v-0.2c0.3,0,0.4,0,0.7,0c0.3,0,0.4,0,0.7,0v0.2C77.9,56.8,77.8,56.8,77.7,56.9"/>
				<path d="M82.3,60.7C81.8,60.9,81.5,61,81,61l-0.1,0.3c0,0,0.1,0,0.1,0c0.2,0,0.4,0.2,0.4,0.4c0,0.4-0.3,0.6-0.7,0.6
					c-0.1,0-0.3,0-0.4-0.1l0.1-0.3c0.1,0,0.2,0.1,0.2,0.1c0.2,0,0.3-0.1,0.3-0.3c0-0.1-0.1-0.2-0.2-0.2c-0.1,0-0.1,0-0.1,0.1l-0.1,0
					l0.1-0.5c-0.6-0.1-1-0.2-1.3-0.6c-0.4-0.4-0.6-1-0.6-1.6c0-1.4,0.9-2.2,2.4-2.2c0.4,0,0.9,0.1,1.3,0.2c0,0.1,0,0.3,0,0.4
					c0,0.1,0,0.4,0,0.5h-0.3c-0.1-0.5-0.5-0.7-1.1-0.7c-0.9,0-1.5,0.6-1.5,1.6c0,1.2,0.7,2,1.6,2c0.5,0,0.9-0.3,1.1-0.8l0.2,0
					C82.4,60,82.3,60.4,82.3,60.7"/>
				<path d="M86.8,60.9c-0.2,0-0.4,0-0.7,0c-0.3,0-0.5,0-0.7,0l-0.1,0v-0.2c0.2,0,0.3-0.1,0.3-0.3c0-0.1,0-0.2-0.1-0.3
					c-0.1-0.2-0.1-0.4-0.2-0.6H84l-0.1,0.4c-0.1,0.3-0.1,0.5-0.1,0.6c0,0.2,0.1,0.3,0.3,0.3v0.2c-0.2,0-0.3,0-0.6,0
					c-0.3,0-0.4,0-0.6,0v-0.2c0.1,0,0.1,0,0.2-0.1c0.1-0.1,0.3-0.3,0.5-0.8l0.6-1.6c0.2-0.4,0.4-1.1,0.6-1.7H85
					c0.1,0.2,0.2,0.5,0.3,0.8l0.9,2.3c0.2,0.4,0.3,0.6,0.4,0.8c0.1,0.1,0.2,0.2,0.3,0.3v0.2L86.8,60.9z M84.7,57.7
					c-0.2,0.4-0.4,1-0.5,1.3h1L84.7,57.7z"/>
				<path d="M88.9,60.9c-0.1,0-0.4,0-0.7,0c-0.3,0-0.5,0-0.7,0l-0.1,0v-0.2c0.3,0,0.4-0.2,0.4-0.5c0-0.2,0-0.3,0-1v-1.1
					c0-0.2,0-0.3,0-0.5c0-0.3,0-0.5-0.1-0.6c-0.1-0.2-0.2-0.2-0.4-0.3v-0.2l0.1,0c0.2,0,0.4,0,0.7,0c0.3,0,0.5,0,0.7,0l0.2,0v0.2
					c-0.3,0-0.4,0.2-0.4,0.5c0,0.2,0,0.4,0,0.9v1.1c0,0.9,0,1,0.1,1.2c0.1,0.2,0.2,0.2,0.4,0.3v0.2L88.9,60.9z"/>
				<path d="M90.9,61c-0.4,0-0.6-0.1-1.1-0.2c0-0.2-0.1-0.6-0.1-0.9l0.2,0c0.2,0.5,0.5,0.8,1,0.8c0.5,0,0.8-0.2,0.8-0.6
					c0-0.3-0.2-0.5-0.5-0.7l-0.7-0.4c-0.5-0.3-0.7-0.6-0.7-1.2c0-0.7,0.6-1.2,1.4-1.2c0.4,0,0.8,0.1,1.1,0.2c0,0.2,0,0.2,0,0.4
					c0,0.2,0,0.3,0,0.5H92c-0.1-0.5-0.4-0.7-0.8-0.7c-0.4,0-0.7,0.3-0.7,0.6c0,0.3,0.2,0.5,0.6,0.7l0.6,0.4c0.5,0.3,0.8,0.7,0.8,1.2
					C92.4,60.5,91.8,61,90.9,61"/>
				<path d="M96.1,60.8c-0.1,0.1-0.1,0.1-0.5,0.1c-0.2,0-0.4,0-0.7,0c-0.3,0-0.6,0-0.9,0c-0.3,0-0.6,0-0.9,0v-0.2
					c0.3,0,0.4-0.2,0.4-0.5c0-0.2,0-0.4,0-0.7v-1.8c0-0.3,0-0.5-0.1-0.6c-0.1-0.2-0.2-0.2-0.4-0.3v-0.2h3c0,0.2,0,0.4,0,0.6
					c0,0.2,0,0.3,0,0.5h-0.2c0-0.5-0.3-0.6-1-0.6c-0.1,0-0.3,0-0.5,0c0,0.3,0,0.3,0,0.7v0.8c0.1,0,0.2,0,0.3,0
					c0.7,0,0.9-0.1,0.9-0.4h0.2c0,0.1,0,0.3,0,0.6c0,0.3,0,0.5,0,0.6h-0.2c0-0.4-0.2-0.5-0.9-0.5c-0.1,0-0.2,0-0.3,0
					c0,0.4,0,0.8,0,1.2c0,0.3,0,0.4,0.2,0.4c0.1,0,0.2,0,0.4,0c0.7,0,0.9-0.2,1.1-0.7l0.3,0C96.3,60.3,96.2,60.7,96.1,60.8"/>
				<path d="M19.5,49.8c-0.1,0.1-0.2,0.1-0.4,0.1c-0.3,0-0.6,0-0.9,0c-0.3,0-0.5,0-0.6,0c-0.2,0-0.7,0-0.8,0l-0.1,0l0-0.1
					c0.2,0,0.3-0.1,0.4-0.2c0.1-0.1,0.2-0.3,0.2-0.7c0.1-0.3,0.1-0.6,0.3-1.2l0.1-0.5c0.1-0.5,0.1-0.8,0.1-1c0-0.3-0.1-0.4-0.4-0.4
					l0-0.1c0,0,0.1,0,0.1,0h0.7H19c0,0,0.1,0,0.1,0l0,0.1c-0.2,0-0.3,0.1-0.4,0.2c-0.2,0.2-0.2,0.5-0.5,1.7l-0.1,0.4
					C18,48.6,18,48.8,18,49c0,0.1,0,0.2,0,0.2c0,0.3,0.1,0.3,0.5,0.3c0.7,0,1-0.1,1.2-0.7l0.2,0.1C19.7,49.4,19.6,49.7,19.5,49.8"/>
				<path d="M21.4,46.7c-0.2,0-0.3-0.1-0.3-0.3c0-0.2,0.2-0.4,0.4-0.4c0.2,0,0.3,0.1,0.3,0.3C21.7,46.5,21.6,46.7,21.4,46.7
					 M20.7,49.9c-0.1,0-0.2-0.1-0.2-0.2c0-0.1,0-0.2,0.1-0.3c0.1-0.3,0.2-0.8,0.3-1c0.1-0.3,0.1-0.6,0.1-0.7c0-0.1,0-0.1-0.1-0.1
					c-0.1,0-0.1,0-0.2,0.1l0,0l0-0.2c0.4-0.1,0.7-0.2,0.9-0.2c0.1,0,0.1,0,0.1,0.1c0,0.1,0,0.3-0.2,0.7l-0.1,0.4
					c-0.2,0.6-0.2,0.8-0.2,0.9c0,0.1,0.1,0.1,0.1,0.1c0.1,0,0.2,0,0.3-0.1l0,0.2C21.2,49.8,20.8,49.9,20.7,49.9"/>
				<path d="M24.2,49.6c-0.2,0.2-0.5,0.3-1,0.3c-0.5,0-0.8-0.1-0.8-0.2c0-0.1,0-0.1,0.1-0.4l0.3-1.4c0.1-0.5,0.2-0.8,0.3-1.3
					c0.1-0.3,0.1-0.5,0.1-0.6c0-0.1,0-0.1-0.1-0.1c0,0-0.2,0-0.3,0.1l0-0.2l0.1,0c0.3-0.1,0.6-0.2,0.8-0.2c0.1,0,0.1,0,0.1,0.1
					c0,0.1,0,0.2-0.1,0.7l-0.2,0.8c-0.1,0.3-0.1,0.4-0.1,0.5c0.4-0.2,0.7-0.3,1.1-0.3c0.4,0,0.6,0.2,0.6,0.6
					C25,48.5,24.6,49.2,24.2,49.6 M24.1,47.6c-0.1,0-0.3,0-0.4,0.1c-0.2,0.1-0.3,0.2-0.4,0.3c-0.1,0.1-0.1,0.3-0.2,0.7
					c-0.1,0.4-0.2,0.7-0.2,0.7c0,0.1,0.2,0.2,0.4,0.2c0.3,0,0.5-0.1,0.6-0.3c0.3-0.4,0.4-0.9,0.4-1.4C24.4,47.7,24.3,47.6,24.1,47.6
					"/>
				<path d="M26.3,48.8c0,0-0.1,0-0.2,0c0,0.1,0,0.2,0,0.3c0,0.3,0.1,0.5,0.3,0.5c0.2,0,0.5-0.1,0.8-0.3l0.1,0.2
					c-0.5,0.3-0.8,0.4-1.1,0.4c-0.4,0-0.6-0.2-0.6-0.7c0-1,0.7-2,1.5-2c0.4,0,0.6,0.2,0.6,0.5C27.8,48.4,27.1,48.8,26.3,48.8
					 M27,47.6c-0.3,0-0.6,0.4-0.8,1h0.1c0.6,0,1-0.3,1-0.7C27.3,47.7,27.2,47.6,27,47.6"/>
				<path d="M30.3,48.2l-0.2,0c0-0.1,0-0.2,0-0.3c0-0.1-0.1-0.2-0.3-0.2c-0.1,0-0.2,0.1-0.3,0.2c-0.2,0.3-0.3,0.7-0.5,1.4L29,49.9
					c-0.2,0-0.3,0-0.6,0c0.1-0.2,0.1-0.4,0.2-0.6l0.1-0.6c0.1-0.4,0.1-0.7,0.1-0.8c0-0.2,0-0.2-0.1-0.2c0,0-0.1,0-0.2,0l-0.2,0
					l0-0.2c0.3-0.1,0.7-0.2,0.8-0.2c0.1,0,0.1,0,0.1,0.1c0,0.1,0,0.2,0,0.3c0.3-0.2,0.5-0.4,0.7-0.4c0.1,0,0.3,0.1,0.4,0.2
					C30.4,47.7,30.3,47.9,30.3,48.2"/>
				<path d="M32.4,47.7l-0.5,0L31.7,49c-0.1,0.3-0.1,0.4-0.1,0.5c0,0.1,0,0.1,0.1,0.1c0,0,0.1,0,0.3-0.1l0.1,0l0,0.2
					c-0.3,0.1-0.7,0.2-0.9,0.2c-0.1,0-0.2-0.1-0.2-0.2c0-0.1,0-0.3,0.1-0.5c0-0.2,0.1-0.4,0.1-0.7l0.2-0.9l-0.3,0l0-0.2
					c0.4-0.1,0.6-0.4,0.7-0.8l0.3-0.1L32,47.4h0.5L32.4,47.7z"/>
				<path d="M34.4,46.9l-0.2-0.2l0.8-0.9l0.6,0.1L34.4,46.9z M33.7,48.8c0,0-0.1,0-0.2,0c0,0.1,0,0.2,0,0.3c0,0.3,0.1,0.5,0.3,0.5
					c0.2,0,0.5-0.1,0.8-0.3l0.1,0.2c-0.5,0.3-0.8,0.4-1.1,0.4c-0.4,0-0.6-0.2-0.6-0.7c0-1,0.7-2,1.5-2c0.4,0,0.6,0.2,0.6,0.5
					C35.1,48.4,34.5,48.8,33.7,48.8 M34.3,47.6c-0.3,0-0.6,0.4-0.8,1h0.1c0.6,0,1-0.3,1-0.7C34.6,47.7,34.5,47.6,34.3,47.6"/>
				<path d="M45.2,45.2L45,45.1l0.8-0.9l0.6,0.1L45.2,45.2z M46.4,46.6h-0.2c0-0.1,0-0.1,0-0.1c0-0.4-0.2-0.5-0.9-0.5
					c-0.2,0-0.4,0-0.6,0c-0.1,0.5-0.2,1-0.3,1.5h0.2c0.4,0,0.6,0,0.7,0c0.2,0,0.4-0.2,0.4-0.4H46c-0.1,0.4-0.2,0.9-0.2,1.2h-0.2
					c0,0,0-0.1,0-0.1c0-0.3-0.2-0.4-0.7-0.4c-0.3,0-0.4,0-0.5,0c0,0.2,0,0-0.1,0.7c-0.1,0.4-0.1,0.6-0.1,0.7c0,0.2,0.1,0.3,0.5,0.3
					c0.8,0,1-0.1,1.3-0.7l0.2,0.1c-0.1,0.4-0.3,0.7-0.4,0.9c-0.1,0.1-0.1,0.1-0.4,0.1c-0.2,0-0.5,0-0.7,0c-0.3,0-0.6,0-0.9,0
					c-0.3,0-0.6,0-0.9,0l0-0.1c0.2,0,0.3-0.1,0.4-0.2c0.1-0.1,0.2-0.3,0.3-0.7c0.1-0.4,0.1-0.5,0.2-1.2l0.1-0.5
					c0.1-0.5,0.1-0.8,0.1-1c0-0.3-0.1-0.4-0.4-0.4l0-0.1h2.9C46.5,45.9,46.5,46.3,46.4,46.6"/>
				<path d="M49.6,47.7l-0.4,0c0.1,0.1,0.1,0.2,0.1,0.4c0,0.6-0.5,1-1.1,1c-0.1,0-0.2,0-0.3,0c-0.2,0.1-0.2,0.1-0.2,0.2
					c0,0.1,0.1,0.1,0.3,0.2l0.5,0.2c0.5,0.2,0.8,0.3,0.8,0.7c0,0.7-0.7,1.2-1.5,1.2c-0.7,0-1.1-0.3-1.1-0.9c0-0.5,0.3-0.7,0.8-0.9
					c-0.3-0.1-0.4-0.2-0.4-0.3c0-0.1,0.2-0.3,0.6-0.5c-0.2-0.1-0.3-0.3-0.3-0.6c0-0.6,0.5-1.1,1.1-1.1c0.2,0,0.3,0,0.4,0.1h0.8
					L49.6,47.7z M48.3,47.6c-0.3,0-0.6,0.4-0.6,0.8c0,0.3,0.2,0.5,0.4,0.5c0.3,0,0.6-0.3,0.6-0.8C48.8,47.8,48.6,47.6,48.3,47.6
					 M48.4,50.1c-0.2-0.1-0.5-0.2-0.7-0.2C47.3,50,47,50.3,47,50.7c0,0.3,0.3,0.6,0.7,0.6c0.6,0,1.1-0.4,1.1-0.8
					C48.8,50.3,48.7,50.2,48.4,50.1"/>
				<path d="M51.9,49.9c-0.1,0-0.2-0.1-0.2-0.4c-0.5,0.3-0.8,0.4-1.1,0.4c-0.4,0-0.6-0.2-0.6-0.5c0-0.3,0.2-0.8,0.4-1.2
					c0.3-0.5,0.8-0.9,1.4-0.9c0.3,0,0.5,0,0.8,0.1l0,0.1c-0.2,0.7-0.4,1.5-0.4,1.8c0,0.2,0,0.3,0.1,0.3c0,0,0.2,0,0.3-0.1l0,0.2
					C52.3,49.8,52,49.9,51.9,49.9 M51.6,47.6c-0.2,0-0.5,0.2-0.7,0.5c-0.2,0.4-0.4,0.9-0.4,1.2c0,0.2,0.1,0.3,0.3,0.3
					c0.2,0,0.6-0.2,0.8-0.4c0.1-0.1,0.1-0.2,0.2-0.5c0.1-0.4,0.2-0.7,0.3-1.2C51.9,47.6,51.7,47.6,51.6,47.6"/>
				<path d="M54.7,46.2c-0.2,0.8-0.4,1.8-0.6,2.7c-0.1,0.3-0.1,0.5-0.1,0.6c0,0.1,0.1,0.1,0.1,0.1c0.1,0,0.2,0,0.4-0.1l0,0.2
					c-0.3,0.1-0.7,0.2-0.9,0.2c-0.1,0-0.2-0.1-0.2-0.2c0-0.1,0-0.2,0.1-0.6c0.2-0.8,0.4-1.7,0.6-2.5c0.1-0.4,0.1-0.6,0.1-0.6
					c0-0.1,0-0.1-0.1-0.1c-0.1,0-0.2,0-0.3,0.1l0-0.2c0.3-0.1,0.7-0.2,0.9-0.2c0.1,0,0.1,0,0.1,0.1C54.8,45.7,54.8,45.9,54.7,46.2"
					/>
				<path d="M56.3,46.7c-0.2,0-0.3-0.1-0.3-0.3c0-0.2,0.2-0.4,0.4-0.4c0.2,0,0.3,0.1,0.3,0.3C56.7,46.5,56.5,46.7,56.3,46.7
					 M55.6,49.9c-0.1,0-0.2-0.1-0.2-0.2c0-0.1,0-0.2,0.1-0.3c0.1-0.3,0.2-0.8,0.3-1c0.1-0.3,0.1-0.6,0.1-0.7c0-0.1,0-0.1-0.1-0.1
					c-0.1,0-0.1,0-0.2,0.1l0,0l0-0.2c0.3-0.1,0.7-0.2,0.9-0.2c0.1,0,0.1,0,0.1,0.1c0,0.1,0,0.3-0.1,0.7l-0.1,0.4
					C56,49.1,56,49.4,56,49.5c0,0.1,0,0.1,0.1,0.1c0.1,0,0.2,0,0.3-0.1l0,0.2C56.1,49.8,55.8,49.9,55.6,49.9"/>
				<path d="M58.8,47.7l-0.5,0L58,49c-0.1,0.3-0.1,0.4-0.1,0.5c0,0.1,0,0.1,0.1,0.1c0,0,0.1,0,0.3-0.1l0.1,0l0,0.2
					c-0.3,0.1-0.7,0.2-0.9,0.2c-0.1,0-0.2-0.1-0.2-0.2c0-0.1,0-0.3,0.1-0.5c0.1-0.2,0.1-0.4,0.1-0.7l0.2-0.9l-0.3,0l0-0.2
					c0.4-0.1,0.6-0.4,0.7-0.8l0.3-0.1l-0.2,0.7h0.5L58.8,47.7z"/>
				<path d="M60.7,46.9l-0.2-0.2l0.8-0.9l0.6,0.1L60.7,46.9z M60,48.8c0,0-0.1,0-0.2,0c0,0.1,0,0.2,0,0.3c0,0.3,0.1,0.5,0.3,0.5
					c0.2,0,0.5-0.1,0.8-0.3l0.1,0.2c-0.5,0.3-0.8,0.4-1.1,0.4c-0.4,0-0.6-0.2-0.6-0.7c0-1,0.7-2,1.5-2c0.4,0,0.6,0.2,0.6,0.5
					C61.5,48.4,60.8,48.8,60,48.8 M60.7,47.6c-0.3,0-0.6,0.4-0.8,1H60c0.6,0,1-0.3,1-0.7C61,47.7,60.9,47.6,60.7,47.6"/>
				<path d="M72.7,46.6h-0.2c0-0.1,0-0.1,0-0.1c0-0.1,0-0.2-0.1-0.3C72.3,46,72.1,46,71.6,46c-0.1,0-0.3,0-0.5,0
					c-0.1,0.5-0.2,1-0.3,1.6c0.1,0,0.2,0,0.4,0c0.7,0,0.8-0.1,1-0.5h0.2c-0.1,0.4-0.2,0.8-0.2,1.2h-0.2c0,0,0-0.1,0-0.1
					c0-0.1,0-0.2-0.1-0.3c-0.1-0.1-0.2-0.1-0.6-0.1c-0.2,0-0.3,0-0.4,0l-0.1,0.4c-0.1,0.6-0.2,0.9-0.2,1.1c0,0.3,0.1,0.4,0.4,0.4
					l0,0.1l-0.1,0h-0.6h-0.8l-0.1,0l0-0.1c0.2,0,0.3-0.1,0.4-0.2c0.1-0.1,0.2-0.3,0.3-0.7c0.1-0.4,0.1-0.5,0.3-1.2l0.1-0.5
					c0.1-0.5,0.1-0.8,0.1-1c0-0.3-0.1-0.4-0.4-0.4l0-0.1h2.8C72.8,45.9,72.8,46.3,72.7,46.6"/>
				<path d="M74.9,48.2l-0.2,0c0-0.1,0-0.2,0-0.3c0-0.1-0.1-0.2-0.3-0.2c-0.1,0-0.2,0.1-0.3,0.2c-0.2,0.3-0.3,0.7-0.5,1.4l-0.1,0.6
					c-0.2,0-0.3,0-0.5,0c0.1-0.2,0.1-0.4,0.2-0.6l0.1-0.6c0.1-0.4,0.1-0.7,0.1-0.8c0-0.2,0-0.2-0.1-0.2c0,0-0.1,0-0.2,0l-0.2,0
					l0-0.2c0.3-0.1,0.7-0.2,0.8-0.2c0.1,0,0.1,0,0.1,0.1c0,0.1,0,0.2,0,0.3c0.3-0.2,0.5-0.4,0.7-0.4c0.1,0,0.3,0.1,0.4,0.2
					C75,47.7,74.9,47.9,74.9,48.2"/>
				<path d="M77.4,49.9c-0.1,0-0.2-0.1-0.2-0.4c-0.5,0.3-0.8,0.4-1.1,0.4c-0.4,0-0.6-0.2-0.6-0.5c0-0.3,0.2-0.8,0.4-1.2
					c0.3-0.5,0.8-0.9,1.4-0.9c0.3,0,0.5,0,0.8,0.1l0,0.1c-0.2,0.7-0.4,1.5-0.4,1.8c0,0.2,0,0.3,0.1,0.3c0,0,0.2,0,0.3-0.1l0,0.2
					C77.8,49.8,77.5,49.9,77.4,49.9 M77.1,47.6c-0.3,0-0.5,0.2-0.7,0.5c-0.2,0.4-0.4,0.9-0.4,1.2c0,0.2,0.1,0.3,0.3,0.3
					c0.2,0,0.6-0.2,0.8-0.4c0.1-0.1,0.1-0.2,0.2-0.5c0.1-0.4,0.2-0.7,0.2-1.2C77.3,47.6,77.2,47.6,77.1,47.6"/>
				<path d="M80.4,47.7l-0.5,0L79.6,49c-0.1,0.3-0.1,0.4-0.1,0.5c0,0.1,0,0.1,0.1,0.1c0,0,0.1,0,0.3-0.1l0.1,0l0,0.2
					c-0.3,0.1-0.7,0.2-0.9,0.2c-0.1,0-0.2-0.1-0.2-0.2c0-0.1,0-0.3,0.1-0.5c0.1-0.2,0.1-0.4,0.1-0.7l0.2-0.9l-0.3,0l0-0.2
					c0.4-0.1,0.6-0.4,0.7-0.8l0.3-0.1l-0.2,0.7h0.5L80.4,47.7z"/>
				<path d="M81.6,48.8c0,0-0.1,0-0.2,0c0,0.1,0,0.2,0,0.3c0,0.3,0.1,0.5,0.3,0.5c0.2,0,0.5-0.1,0.8-0.3l0.1,0.2
					c-0.5,0.3-0.8,0.4-1.1,0.4c-0.4,0-0.6-0.2-0.6-0.7c0-1,0.7-2,1.5-2c0.4,0,0.6,0.2,0.6,0.5C83,48.4,82.4,48.8,81.6,48.8
					 M82.3,47.6c-0.3,0-0.6,0.4-0.8,1h0.1c0.6,0,1-0.3,1-0.7C82.6,47.7,82.4,47.6,82.3,47.6"/>
				<path d="M85.6,48.2l-0.2,0c0-0.1,0-0.2,0-0.3c0-0.1-0.1-0.2-0.3-0.2c-0.1,0-0.2,0.1-0.3,0.2c-0.2,0.3-0.3,0.7-0.5,1.4l-0.1,0.6
					c-0.2,0-0.3,0-0.5,0c0.1-0.2,0.1-0.4,0.2-0.6l0.1-0.6c0.1-0.4,0.1-0.7,0.1-0.8c0-0.2,0-0.2-0.1-0.2c0,0-0.1,0-0.2,0l-0.2,0
					l0-0.2c0.3-0.1,0.7-0.2,0.8-0.2c0.1,0,0.1,0,0.1,0.1c0,0.1,0,0.2,0,0.3c0.3-0.2,0.5-0.4,0.7-0.4c0.1,0,0.3,0.1,0.4,0.2
					C85.7,47.7,85.6,47.9,85.6,48.2"/>
				<path d="M88.1,49.9c-0.1,0-0.2-0.1-0.2-0.2c0-0.1,0-0.2,0.1-0.5l0.1-0.3c0.2-0.8,0.2-1.1,0.2-1.2c0-0.1-0.1-0.1-0.1-0.1
					c-0.1,0-0.3,0.1-0.5,0.2c-0.2,0.1-0.4,0.3-0.4,0.4c-0.1,0.1-0.1,0.2-0.2,0.6c-0.1,0.5-0.2,0.8-0.2,1.1c-0.2,0-0.3,0-0.6,0
					c0.1-0.5,0.2-0.9,0.3-1.3c0.1-0.4,0.1-0.6,0.1-0.7c0-0.2,0-0.2-0.1-0.2c-0.1,0-0.2,0-0.3,0.1l0-0.2c0.3-0.1,0.6-0.2,0.8-0.2
					c0.1,0,0.2,0.1,0.2,0.4v0c0.5-0.3,1-0.4,1.3-0.4c0.2,0,0.3,0,0.3,0.2c0,0.1,0,0.3-0.2,0.9c-0.1,0.3-0.1,0.6-0.2,0.7
					c0,0.2-0.1,0.3-0.1,0.4c0,0.1,0,0.1,0.1,0.1c0.1,0,0.2,0,0.3-0.1l0,0.2C88.6,49.8,88.2,49.9,88.1,49.9"/>
				<path d="M90.8,46.7c-0.2,0-0.3-0.1-0.3-0.3c0-0.2,0.2-0.4,0.4-0.4c0.2,0,0.3,0.1,0.3,0.3C91.1,46.5,91,46.7,90.8,46.7
					 M90.1,49.9c-0.1,0-0.2-0.1-0.2-0.2c0-0.1,0-0.2,0-0.3c0.1-0.3,0.2-0.8,0.3-1c0.1-0.3,0.1-0.6,0.1-0.7c0-0.1,0-0.1-0.1-0.1
					c-0.1,0-0.1,0-0.2,0.1l-0.1,0l0-0.2c0.3-0.1,0.7-0.2,0.9-0.2c0.1,0,0.1,0,0.1,0.1c0,0.1,0,0.3-0.1,0.7l-0.1,0.4
					c-0.2,0.6-0.2,0.8-0.2,0.9c0,0.1,0.1,0.1,0.2,0.1c0.1,0,0.2,0,0.3-0.1l0,0.2C90.6,49.8,90.2,49.9,90.1,49.9"/>
				<path d="M93.2,47.7l-0.5,0L92.5,49c-0.1,0.3-0.1,0.4-0.1,0.5c0,0.1,0,0.1,0.1,0.1c0,0,0.1,0,0.3-0.1l0.1,0l0,0.2
					c-0.3,0.1-0.7,0.2-0.9,0.2c-0.1,0-0.2-0.1-0.2-0.2c0-0.1,0-0.3,0.1-0.5c0-0.2,0.1-0.4,0.1-0.7l0.2-0.9l-0.3,0l0-0.2
					c0.4-0.1,0.6-0.4,0.7-0.8l0.3-0.1l-0.2,0.7h0.5L93.2,47.7z"/>
				<path d="M95.2,46.9L95,46.8l0.8-0.9l0.6,0.1L95.2,46.9z M94.5,48.8c0,0-0.1,0-0.2,0c0,0.1,0,0.2,0,0.3c0,0.3,0.1,0.5,0.3,0.5
					c0.2,0,0.5-0.1,0.8-0.3l0.1,0.2c-0.5,0.3-0.8,0.4-1.1,0.4c-0.4,0-0.6-0.2-0.6-0.7c0-1,0.7-2,1.5-2c0.4,0,0.6,0.2,0.6,0.5
					C95.9,48.4,95.3,48.8,94.5,48.8 M95.1,47.6c-0.3,0-0.6,0.4-0.8,1h0.1c0.6,0,1-0.3,1-0.7C95.4,47.7,95.3,47.6,95.1,47.6"/>
				<path d="M65.5,48.8c0.4,0,0.8-0.3,0.8-0.8c0-0.4-0.3-0.8-0.8-0.8c-0.4,0-0.8,0.3-0.8,0.8C64.8,48.4,65.1,48.8,65.5,48.8"/>
				<path d="M39.2,48.8c0.4,0,0.8-0.3,0.8-0.8c0-0.4-0.3-0.8-0.8-0.8c-0.4,0-0.8,0.3-0.8,0.8C38.4,48.4,38.8,48.8,39.2,48.8"/>
				<rect x="17.1" y="52.4" width="79" height="0.7"/>
			</g>
		</g>
	</g>
	<g>
		<g>
			<rect x="0.5" y="75.4" class="st0" width="112.4" height="77.7"/>
			<path d="M113.4,153.7H0V75h113.4V153.7z M0.9,152.7h111.5V75.9H0.9V152.7z"/>
		</g>
	</g>
</g>
<g>
	<path d="M34.9,94.4l-2.5-5.4v4.3c0,0.4,0,0.6,0.1,0.7c0.1,0.1,0.3,0.2,0.6,0.2h0.2v0.2h-2.2v-0.2h0.2c0.3,0,0.5-0.1,0.6-0.2
		c0.1-0.1,0.1-0.3,0.1-0.7v-4.2c0-0.3,0-0.5-0.1-0.6c0-0.1-0.1-0.2-0.2-0.2c-0.1-0.1-0.3-0.1-0.6-0.1V88h1.8l2.3,5l2.3-5h1.8v0.2
		h-0.2c-0.3,0-0.5,0.1-0.6,0.2c-0.1,0.1-0.1,0.3-0.1,0.7v4.2c0,0.4,0,0.6,0.1,0.7c0.1,0.1,0.3,0.2,0.6,0.2h0.2v0.2h-2.7v-0.2h0.2
		c0.3,0,0.5-0.1,0.6-0.2c0.1-0.1,0.1-0.3,0.1-0.7v-4.3L35,94.4H34.9z"/>
	<path d="M42.5,94.2v0.2h-2.7v-0.2H40c0.3,0,0.5-0.1,0.6-0.2c0.1-0.1,0.1-0.3,0.1-0.7v-4.1c0-0.3,0-0.5-0.1-0.6
		c0-0.1-0.1-0.1-0.2-0.2c-0.1-0.1-0.3-0.1-0.4-0.1h-0.2V88h2.7v0.2h-0.2c-0.3,0-0.5,0.1-0.6,0.2c-0.1,0.1-0.1,0.3-0.1,0.7v4.1
		c0,0.3,0,0.5,0.1,0.6c0,0.1,0.1,0.1,0.2,0.2c0.1,0.1,0.3,0.1,0.4,0.1H42.5z"/>
	<path d="M42.6,88h1.7l3.9,4.8v-3.7c0-0.4,0-0.6-0.1-0.7c-0.1-0.1-0.3-0.2-0.6-0.2h-0.2V88h2.2v0.2h-0.2c-0.3,0-0.5,0.1-0.6,0.2
		c-0.1,0.1-0.1,0.3-0.1,0.7v5.4h-0.2l-4.2-5.1v3.9c0,0.4,0,0.6,0.1,0.7c0.1,0.1,0.3,0.2,0.6,0.2h0.2v0.2h-2.2v-0.2h0.2
		c0.3,0,0.5-0.1,0.6-0.2c0.1-0.1,0.1-0.3,0.1-0.7v-4.4c-0.2-0.2-0.3-0.4-0.4-0.4c-0.1-0.1-0.2-0.1-0.4-0.2c-0.1,0-0.2,0-0.4,0V88z"
		/>
	<path d="M52.6,94.2v0.2h-2.7v-0.2h0.2c0.3,0,0.5-0.1,0.6-0.2c0.1-0.1,0.1-0.3,0.1-0.7v-4.1c0-0.3,0-0.5-0.1-0.6
		c0-0.1-0.1-0.1-0.2-0.2c-0.1-0.1-0.3-0.1-0.4-0.1h-0.2V88h2.7v0.2h-0.2c-0.3,0-0.5,0.1-0.6,0.2c-0.1,0.1-0.1,0.3-0.1,0.7v4.1
		c0,0.3,0,0.5,0.1,0.6c0,0.1,0.1,0.1,0.2,0.2c0.1,0.1,0.3,0.1,0.4,0.1H52.6z"/>
	<path d="M57.3,87.9v2.2h-0.2c-0.1-0.4-0.2-0.8-0.3-1c-0.1-0.3-0.4-0.5-0.6-0.6c-0.3-0.1-0.5-0.2-0.8-0.2c-0.3,0-0.6,0.1-0.8,0.3
		c-0.2,0.2-0.3,0.4-0.3,0.7c0,0.2,0.1,0.4,0.2,0.5c0.2,0.2,0.7,0.5,1.4,0.9c0.6,0.3,1,0.6,1.2,0.7c0.2,0.2,0.4,0.4,0.5,0.6
		c0.1,0.2,0.2,0.5,0.2,0.7c0,0.5-0.2,0.9-0.6,1.3c-0.4,0.3-0.9,0.5-1.4,0.5c-0.2,0-0.4,0-0.5,0c-0.1,0-0.3-0.1-0.6-0.2
		c-0.3-0.1-0.5-0.1-0.6-0.1c-0.1,0-0.1,0-0.2,0.1c0,0-0.1,0.1-0.1,0.3h-0.2v-2.2h0.2c0.1,0.5,0.2,0.8,0.3,1c0.1,0.2,0.3,0.4,0.6,0.6
		c0.3,0.2,0.6,0.2,0.9,0.2c0.4,0,0.7-0.1,0.9-0.3c0.2-0.2,0.3-0.5,0.3-0.7c0-0.2,0-0.3-0.1-0.5c-0.1-0.2-0.2-0.3-0.4-0.4
		c-0.1-0.1-0.5-0.3-1-0.6c-0.5-0.3-0.9-0.6-1.2-0.7c-0.2-0.2-0.4-0.4-0.5-0.6c-0.1-0.2-0.2-0.5-0.2-0.7c0-0.5,0.2-0.9,0.5-1.2
		c0.4-0.3,0.8-0.5,1.3-0.5c0.3,0,0.7,0.1,1.1,0.3c0.2,0.1,0.3,0.1,0.4,0.1c0.1,0,0.1,0,0.2-0.1c0.1,0,0.1-0.1,0.1-0.3H57.3z"/>
	<path d="M63.8,88l0.1,1.5h-0.2c0-0.3-0.1-0.5-0.1-0.6c-0.1-0.2-0.2-0.3-0.4-0.4c-0.2-0.1-0.4-0.1-0.6-0.1h-0.9v4.9
		c0,0.4,0,0.6,0.1,0.7c0.1,0.1,0.3,0.2,0.6,0.2h0.2v0.2h-2.7v-0.2h0.2c0.3,0,0.5-0.1,0.6-0.2c0.1-0.1,0.1-0.3,0.1-0.7v-4.9H60
		c-0.3,0-0.5,0-0.6,0.1c-0.2,0.1-0.3,0.2-0.4,0.3c-0.1,0.2-0.2,0.4-0.2,0.7h-0.2l0.1-1.5H63.8z"/>
	<path d="M66.1,88.4v2.5h1.4c0.4,0,0.6-0.1,0.7-0.2c0.2-0.1,0.3-0.4,0.3-0.8h0.2v2.2h-0.2c0-0.3-0.1-0.5-0.1-0.6
		c-0.1-0.1-0.1-0.2-0.3-0.3c-0.1-0.1-0.3-0.1-0.6-0.1h-1.4v2.1c0,0.3,0,0.5,0,0.5c0,0.1,0.1,0.1,0.1,0.1c0.1,0,0.2,0.1,0.4,0.1h1.1
		c0.4,0,0.6,0,0.8-0.1c0.2,0,0.3-0.1,0.5-0.3c0.2-0.2,0.4-0.5,0.6-0.9h0.2l-0.6,1.6h-4.9v-0.2h0.2c0.1,0,0.3,0,0.4-0.1
		c0.1,0,0.2-0.1,0.2-0.2c0-0.1,0.1-0.3,0.1-0.6v-4.1c0-0.4,0-0.7-0.1-0.7c-0.1-0.1-0.3-0.2-0.6-0.2h-0.2V88h4.9l0.1,1.4h-0.2
		c-0.1-0.3-0.1-0.6-0.2-0.7c-0.1-0.1-0.2-0.2-0.4-0.3c-0.1,0-0.3-0.1-0.7-0.1H66.1z M66,86h1l0.5,1.6h-0.2L66,86z"/>
	<path d="M76.5,94.4h-1.7l-2.2-3c-0.2,0-0.3,0-0.4,0c0,0-0.1,0-0.1,0c0,0-0.1,0-0.1,0v1.9c0,0.4,0,0.7,0.1,0.7
		c0.1,0.1,0.3,0.2,0.5,0.2h0.2v0.2h-2.7v-0.2h0.2c0.3,0,0.5-0.1,0.6-0.3c0.1-0.1,0.1-0.3,0.1-0.7v-4.1c0-0.4,0-0.7-0.1-0.7
		c-0.1-0.1-0.3-0.2-0.5-0.2h-0.2V88h2.3c0.7,0,1.2,0,1.5,0.1c0.3,0.1,0.6,0.3,0.8,0.5c0.2,0.3,0.3,0.6,0.3,0.9c0,0.4-0.1,0.7-0.4,1
		c-0.3,0.3-0.7,0.5-1.2,0.6l1.3,1.8c0.3,0.4,0.6,0.7,0.8,0.8c0.2,0.1,0.5,0.2,0.8,0.3V94.4z M72,91.1c0.1,0,0.1,0,0.2,0
		c0,0,0.1,0,0.1,0c0.6,0,1.1-0.1,1.4-0.4c0.3-0.3,0.5-0.6,0.5-1c0-0.4-0.1-0.7-0.4-1c-0.2-0.3-0.6-0.4-1-0.4c-0.2,0-0.4,0-0.7,0.1
		V91.1z"/>
	<path d="M78.5,88.4v2.5h1.4c0.4,0,0.6-0.1,0.7-0.2c0.2-0.1,0.3-0.4,0.3-0.8H81v2.2h-0.2c0-0.3-0.1-0.5-0.1-0.6
		c-0.1-0.1-0.1-0.2-0.3-0.3c-0.1-0.1-0.3-0.1-0.6-0.1h-1.4v2.1c0,0.3,0,0.5,0,0.5c0,0.1,0.1,0.1,0.1,0.1c0.1,0,0.2,0.1,0.4,0.1h1.1
		c0.4,0,0.6,0,0.8-0.1c0.2,0,0.3-0.1,0.5-0.3c0.2-0.2,0.4-0.5,0.6-0.9h0.2l-0.6,1.6h-4.9v-0.2h0.2c0.1,0,0.3,0,0.4-0.1
		c0.1,0,0.2-0.1,0.2-0.2c0-0.1,0.1-0.3,0.1-0.6v-4.1c0-0.4,0-0.7-0.1-0.7c-0.1-0.1-0.3-0.2-0.6-0.2h-0.2V88h4.9l0.1,1.4h-0.2
		c-0.1-0.3-0.1-0.6-0.2-0.7c-0.1-0.1-0.2-0.2-0.4-0.3c-0.1,0-0.3-0.1-0.7-0.1H78.5z"/>
	<path d="M8.3,106v-0.2h0.2c0.3,0,0.5-0.1,0.6-0.3c0.1-0.1,0.1-0.3,0.1-0.7v-4.1c0-0.4,0-0.6-0.1-0.7c-0.1-0.1-0.3-0.2-0.5-0.2H8.3
		v-0.2h2.6c1,0,1.7,0.1,2.2,0.3c0.5,0.2,0.9,0.6,1.2,1.1c0.3,0.5,0.5,1.1,0.5,1.8c0,0.9-0.3,1.6-0.8,2.2c-0.6,0.7-1.5,1-2.8,1H8.3z
		 M10.2,105.5c0.4,0.1,0.7,0.1,1,0.1c0.7,0,1.3-0.3,1.8-0.8c0.5-0.5,0.7-1.2,0.7-2.1c0-0.9-0.2-1.6-0.7-2.1
		c-0.5-0.5-1.1-0.8-1.8-0.8c-0.3,0-0.6,0-1,0.1V105.5z"/>
	<path d="M17.1,100v2.5h1.4c0.4,0,0.6-0.1,0.7-0.2c0.2-0.1,0.3-0.4,0.3-0.8h0.2v2.2h-0.2c0-0.3-0.1-0.5-0.1-0.6
		c-0.1-0.1-0.1-0.2-0.3-0.3c-0.1-0.1-0.3-0.1-0.6-0.1h-1.4v2.1c0,0.3,0,0.5,0,0.5c0,0.1,0.1,0.1,0.1,0.1c0.1,0,0.2,0.1,0.4,0.1h1.1
		c0.4,0,0.6,0,0.8-0.1c0.2-0.1,0.3-0.1,0.5-0.3c0.2-0.2,0.4-0.5,0.6-0.9h0.2l-0.6,1.6h-4.9v-0.2h0.2c0.2,0,0.3,0,0.4-0.1
		c0.1-0.1,0.2-0.1,0.2-0.2c0-0.1,0.1-0.3,0.1-0.6v-4.1c0-0.4,0-0.7-0.1-0.7c-0.1-0.1-0.3-0.2-0.6-0.2h-0.2v-0.2h4.9l0.1,1.4h-0.2
		c-0.1-0.3-0.1-0.6-0.2-0.7c-0.1-0.1-0.2-0.2-0.4-0.3c-0.1,0-0.3-0.1-0.7-0.1H17.1z"/>
	<path d="M28.8,104.2l0.2,0l-0.5,1.7h-4.9v-0.2h0.2c0.3,0,0.5-0.1,0.6-0.3c0.1-0.1,0.1-0.3,0.1-0.7v-4.1c0-0.4,0-0.6-0.1-0.7
		c-0.1-0.1-0.3-0.2-0.5-0.2h-0.2v-0.2h2.9v0.2c-0.3,0-0.6,0-0.7,0.1c-0.1,0.1-0.2,0.1-0.3,0.2c-0.1,0.1-0.1,0.3-0.1,0.7v4
		c0,0.3,0,0.4,0.1,0.5c0,0.1,0.1,0.1,0.2,0.1c0.1,0,0.3,0,0.7,0h0.5c0.5,0,0.8,0,1-0.1c0.2-0.1,0.4-0.2,0.5-0.4
		C28.5,104.9,28.6,104.6,28.8,104.2z"/>
	<path d="M29.4,101.9v-0.2c0.3-0.2,0.5-0.4,0.7-0.5c0.1-0.1,0.1-0.3,0.1-0.4c0-0.1,0-0.2-0.1-0.2c0,0-0.1-0.1-0.1-0.1
		c0,0-0.1,0-0.1,0c-0.1,0-0.1,0-0.2,0c-0.1,0-0.2,0-0.3-0.1c-0.1-0.1-0.1-0.2-0.1-0.4c0-0.2,0-0.3,0.1-0.4c0.1-0.1,0.3-0.2,0.5-0.2
		c0.2,0,0.4,0.1,0.6,0.3c0.2,0.2,0.3,0.4,0.3,0.7c0,0.4-0.1,0.7-0.4,1C30,101.6,29.7,101.8,29.4,101.9z"/>
	<path d="M33.4,100v2.5h1.4c0.4,0,0.6-0.1,0.7-0.2c0.2-0.1,0.3-0.4,0.3-0.8H36v2.2h-0.2c0-0.3-0.1-0.5-0.1-0.6
		c-0.1-0.1-0.1-0.2-0.3-0.3c-0.1-0.1-0.3-0.1-0.6-0.1h-1.4v2.1c0,0.3,0,0.5,0,0.5c0,0.1,0.1,0.1,0.1,0.1c0.1,0,0.2,0.1,0.4,0.1H35
		c0.4,0,0.6,0,0.8-0.1c0.2-0.1,0.3-0.1,0.5-0.3c0.2-0.2,0.4-0.5,0.6-0.9h0.2l-0.6,1.6h-4.9v-0.2h0.2c0.2,0,0.3,0,0.4-0.1
		c0.1-0.1,0.2-0.1,0.2-0.2c0-0.1,0.1-0.3,0.1-0.6v-4.1c0-0.4,0-0.7-0.1-0.7c-0.1-0.1-0.3-0.2-0.6-0.2h-0.2v-0.2h4.9l0.1,1.4h-0.2
		c-0.1-0.3-0.1-0.6-0.2-0.7c-0.1-0.1-0.2-0.2-0.4-0.3c-0.1,0-0.3-0.1-0.7-0.1H33.4z"/>
	<path d="M37.1,99.6h1.7l3.9,4.8v-3.7c0-0.4,0-0.6-0.1-0.7c-0.1-0.1-0.3-0.2-0.6-0.2h-0.2v-0.2h2.2v0.2h-0.2c-0.3,0-0.5,0.1-0.6,0.2
		c-0.1,0.1-0.1,0.3-0.1,0.7v5.4H43l-4.2-5.1v3.9c0,0.4,0,0.6,0.1,0.7c0.1,0.1,0.3,0.2,0.6,0.2h0.2v0.2h-2.2v-0.2h0.2
		c0.3,0,0.5-0.1,0.6-0.2c0.1-0.1,0.1-0.3,0.1-0.7v-4.4c-0.2-0.2-0.3-0.4-0.4-0.4c-0.1-0.1-0.2-0.1-0.4-0.2c-0.1,0-0.2,0-0.4,0V99.6z
		"/>
	<path d="M48.6,99.5v2.2h-0.2c-0.1-0.4-0.2-0.8-0.3-1c-0.1-0.3-0.4-0.4-0.6-0.6c-0.3-0.1-0.5-0.2-0.8-0.2c-0.3,0-0.6,0.1-0.8,0.3
		c-0.2,0.2-0.3,0.4-0.3,0.7c0,0.2,0.1,0.4,0.2,0.5c0.2,0.2,0.7,0.5,1.4,0.9c0.6,0.3,1,0.6,1.2,0.7c0.2,0.2,0.4,0.4,0.5,0.6
		c0.1,0.2,0.2,0.5,0.2,0.7c0,0.5-0.2,0.9-0.6,1.3c-0.4,0.3-0.9,0.5-1.4,0.5c-0.2,0-0.4,0-0.5,0c-0.1,0-0.3-0.1-0.6-0.2
		c-0.3-0.1-0.5-0.1-0.6-0.1c-0.1,0-0.1,0-0.2,0.1c0,0-0.1,0.1-0.1,0.3h-0.2v-2.2H45c0.1,0.5,0.2,0.8,0.3,1c0.1,0.2,0.3,0.4,0.6,0.6
		c0.3,0.2,0.6,0.2,0.9,0.2c0.4,0,0.7-0.1,0.9-0.3c0.2-0.2,0.3-0.5,0.3-0.7c0-0.2,0-0.3-0.1-0.5c-0.1-0.2-0.2-0.3-0.4-0.4
		c-0.1-0.1-0.5-0.3-1-0.6c-0.5-0.3-0.9-0.6-1.2-0.7c-0.2-0.2-0.4-0.4-0.5-0.6c-0.1-0.2-0.2-0.5-0.2-0.7c0-0.5,0.2-0.9,0.5-1.2
		c0.4-0.3,0.8-0.5,1.3-0.5c0.3,0,0.7,0.1,1.1,0.3c0.2,0.1,0.3,0.1,0.4,0.1c0.1,0,0.1,0,0.2-0.1c0.1,0,0.1-0.1,0.1-0.3H48.6z"/>
	<path d="M51.5,100v2.5h1.4c0.4,0,0.6-0.1,0.7-0.2c0.2-0.1,0.3-0.4,0.3-0.8H54v2.2h-0.2c0-0.3-0.1-0.5-0.1-0.6
		c-0.1-0.1-0.1-0.2-0.3-0.3c-0.1-0.1-0.3-0.1-0.6-0.1h-1.4v2.1c0,0.3,0,0.5,0,0.5c0,0.1,0.1,0.1,0.1,0.1c0.1,0,0.2,0.1,0.4,0.1h1.1
		c0.4,0,0.6,0,0.8-0.1c0.2-0.1,0.3-0.1,0.5-0.3c0.2-0.2,0.4-0.5,0.6-0.9h0.2l-0.6,1.6h-4.9v-0.2h0.2c0.2,0,0.3,0,0.4-0.1
		c0.1-0.1,0.2-0.1,0.2-0.2c0-0.1,0.1-0.3,0.1-0.6v-4.1c0-0.4,0-0.7-0.1-0.7c-0.1-0.1-0.3-0.2-0.6-0.2h-0.2v-0.2h4.9l0.1,1.4h-0.2
		c-0.1-0.3-0.1-0.6-0.2-0.7s-0.2-0.2-0.4-0.3c-0.1,0-0.3-0.1-0.7-0.1H51.5z"/>
	<path d="M58.3,105.8v0.2h-2.7v-0.2h0.2c0.3,0,0.5-0.1,0.6-0.2c0.1-0.1,0.1-0.3,0.1-0.7v-4.1c0-0.3,0-0.5-0.1-0.6
		c0-0.1-0.1-0.1-0.2-0.2c-0.1-0.1-0.3-0.1-0.4-0.1h-0.2v-0.2h2.7v0.2H58c-0.3,0-0.5,0.1-0.6,0.2c-0.1,0.1-0.1,0.3-0.1,0.7v4.1
		c0,0.3,0,0.5,0.1,0.6c0,0.1,0.1,0.1,0.2,0.2c0.1,0.1,0.3,0.1,0.4,0.1H58.3z"/>
	<path d="M64.4,99.5l0.2,2h-0.2c-0.2-0.5-0.4-0.9-0.6-1.1c-0.4-0.4-0.9-0.6-1.5-0.6c-0.8,0-1.4,0.3-1.9,1c-0.4,0.5-0.5,1.2-0.5,1.9
		c0,0.6,0.1,1.2,0.4,1.7c0.2,0.5,0.5,0.9,0.9,1.1c0.4,0.2,0.8,0.4,1.2,0.4c0.2,0,0.5,0,0.7-0.1s0.4-0.1,0.6-0.3v-1.8
		c0-0.3,0-0.5-0.1-0.6c0-0.1-0.1-0.2-0.2-0.2c-0.1-0.1-0.3-0.1-0.5-0.1v-0.2h2.5v0.2h-0.1c-0.2,0-0.4,0.1-0.5,0.2
		c-0.1,0.1-0.1,0.3-0.1,0.7v2c-0.4,0.2-0.7,0.3-1.1,0.4c-0.4,0.1-0.7,0.1-1.2,0.1c-1.2,0-2.2-0.4-2.8-1.2c-0.5-0.6-0.7-1.3-0.7-2.1
		c0-0.6,0.1-1.1,0.4-1.6c0.3-0.6,0.8-1.1,1.3-1.4c0.5-0.3,1-0.4,1.7-0.4c0.2,0,0.4,0,0.6,0.1c0.2,0,0.5,0.1,0.8,0.2
		c0.2,0.1,0.3,0.1,0.4,0.1c0.1,0,0.1,0,0.2-0.1c0-0.1,0.1-0.2,0.1-0.3H64.4z"/>
	<path d="M65.2,99.6H67l3.9,4.8v-3.7c0-0.4,0-0.6-0.1-0.7c-0.1-0.1-0.3-0.2-0.6-0.2H70v-0.2h2.2v0.2H72c-0.3,0-0.5,0.1-0.6,0.2
		c-0.1,0.1-0.1,0.3-0.1,0.7v5.4h-0.2l-4.2-5.1v3.9c0,0.4,0,0.6,0.1,0.7c0.1,0.1,0.3,0.2,0.6,0.2h0.2v0.2h-2.2v-0.2h0.2
		c0.3,0,0.5-0.1,0.6-0.2c0.1-0.1,0.1-0.3,0.1-0.7v-4.4c-0.2-0.2-0.3-0.4-0.4-0.4c-0.1-0.1-0.2-0.1-0.4-0.2c-0.1,0-0.2,0-0.4,0V99.6z
		"/>
	<path d="M74.3,100v2.5h1.4c0.4,0,0.6-0.1,0.7-0.2c0.2-0.1,0.3-0.4,0.3-0.8h0.2v2.2h-0.2c0-0.3-0.1-0.5-0.1-0.6
		c-0.1-0.1-0.1-0.2-0.3-0.3c-0.1-0.1-0.3-0.1-0.6-0.1h-1.4v2.1c0,0.3,0,0.5,0,0.5c0,0.1,0.1,0.1,0.1,0.1c0.1,0,0.2,0.1,0.4,0.1h1.1
		c0.4,0,0.6,0,0.8-0.1c0.2-0.1,0.3-0.1,0.5-0.3c0.2-0.2,0.4-0.5,0.6-0.9h0.2l-0.6,1.6h-4.9v-0.2h0.2c0.2,0,0.3,0,0.4-0.1
		c0.1-0.1,0.2-0.1,0.2-0.2c0-0.1,0.1-0.3,0.1-0.6v-4.1c0-0.4,0-0.7-0.1-0.7c-0.1-0.1-0.3-0.2-0.6-0.2h-0.2v-0.2h4.9l0.1,1.4h-0.2
		c-0.1-0.3-0.1-0.6-0.2-0.7c-0.1-0.1-0.2-0.2-0.4-0.3c-0.1,0-0.3-0.1-0.7-0.1H74.3z"/>
	<path d="M82.1,106l-2.5-5.4v4.3c0,0.4,0,0.6,0.1,0.7c0.1,0.1,0.3,0.2,0.6,0.2h0.2v0.2h-2.2v-0.2h0.2c0.3,0,0.5-0.1,0.6-0.2
		c0.1-0.1,0.1-0.3,0.1-0.7v-4.2c0-0.3,0-0.5-0.1-0.6c0-0.1-0.1-0.2-0.2-0.2c-0.1-0.1-0.3-0.1-0.6-0.1v-0.2h1.8l2.3,5l2.3-5h1.8v0.2
		h-0.2c-0.3,0-0.5,0.1-0.6,0.2c-0.1,0.1-0.1,0.3-0.1,0.7v4.2c0,0.4,0,0.6,0.1,0.7c0.1,0.1,0.3,0.2,0.6,0.2h0.2v0.2h-2.7v-0.2H84
		c0.3,0,0.5-0.1,0.6-0.2c0.1-0.1,0.1-0.3,0.1-0.7v-4.3l-2.5,5.4H82.1z"/>
	<path d="M88.6,100v2.5h1.4c0.4,0,0.6-0.1,0.7-0.2c0.2-0.1,0.3-0.4,0.3-0.8h0.2v2.2h-0.2c0-0.3-0.1-0.5-0.1-0.6
		c-0.1-0.1-0.2-0.2-0.3-0.3c-0.1-0.1-0.3-0.1-0.6-0.1h-1.4v2.1c0,0.3,0,0.5,0,0.5c0,0.1,0.1,0.1,0.1,0.1c0.1,0,0.2,0.1,0.4,0.1h1.1
		c0.4,0,0.6,0,0.8-0.1c0.2-0.1,0.3-0.1,0.5-0.3c0.2-0.2,0.4-0.5,0.6-0.9h0.2l-0.5,1.6h-4.9v-0.2h0.2c0.2,0,0.3,0,0.4-0.1
		c0.1-0.1,0.2-0.1,0.2-0.2c0-0.1,0.1-0.3,0.1-0.6v-4.1c0-0.4,0-0.7-0.1-0.7c-0.1-0.1-0.3-0.2-0.6-0.2h-0.2v-0.2h4.9l0.1,1.4h-0.2
		c-0.1-0.3-0.1-0.6-0.2-0.7c-0.1-0.1-0.2-0.2-0.4-0.3c-0.1,0-0.3-0.1-0.7-0.1H88.6z"/>
	<path d="M92.3,99.6h1.7l3.9,4.8v-3.7c0-0.4,0-0.6-0.1-0.7c-0.1-0.1-0.3-0.2-0.5-0.2h-0.2v-0.2h2.2v0.2h-0.2c-0.3,0-0.5,0.1-0.6,0.2
		c-0.1,0.1-0.1,0.3-0.1,0.7v5.4h-0.2L94,101v3.9c0,0.4,0,0.6,0.1,0.7c0.1,0.1,0.3,0.2,0.5,0.2h0.2v0.2h-2.2v-0.2h0.2
		c0.3,0,0.5-0.1,0.6-0.2c0.1-0.1,0.1-0.3,0.1-0.7v-4.4c-0.2-0.2-0.3-0.4-0.4-0.4c-0.1-0.1-0.2-0.1-0.4-0.2c-0.1,0-0.2,0-0.4,0V99.6z
		"/>
	<path d="M105,99.6l0.1,1.5h-0.2c0-0.3-0.1-0.5-0.1-0.6c-0.1-0.2-0.2-0.3-0.4-0.4c-0.2-0.1-0.4-0.1-0.6-0.1h-0.9v4.9
		c0,0.4,0,0.6,0.1,0.7c0.1,0.1,0.3,0.2,0.6,0.2h0.2v0.2H101v-0.2h0.2c0.3,0,0.5-0.1,0.6-0.2c0.1-0.1,0.1-0.3,0.1-0.7V100h-0.8
		c-0.3,0-0.5,0-0.6,0.1c-0.2,0.1-0.3,0.2-0.4,0.3c-0.1,0.2-0.2,0.4-0.2,0.7h-0.2l0.1-1.5H105z"/>
	<path d="M32.4,111v2.2h-0.2c-0.1-0.4-0.2-0.8-0.3-1c-0.1-0.3-0.4-0.4-0.6-0.6c-0.3-0.1-0.5-0.2-0.8-0.2c-0.3,0-0.6,0.1-0.8,0.3
		c-0.2,0.2-0.3,0.4-0.3,0.7c0,0.2,0.1,0.4,0.2,0.5c0.2,0.2,0.7,0.5,1.4,0.9c0.6,0.3,1,0.6,1.2,0.7c0.2,0.2,0.4,0.4,0.5,0.6
		c0.1,0.2,0.2,0.5,0.2,0.7c0,0.5-0.2,0.9-0.6,1.3c-0.4,0.3-0.9,0.5-1.4,0.5c-0.2,0-0.4,0-0.5,0c-0.1,0-0.3-0.1-0.6-0.2
		c-0.3-0.1-0.5-0.1-0.6-0.1c-0.1,0-0.1,0-0.2,0.1c0,0-0.1,0.1-0.1,0.3h-0.2v-2.2h0.2c0.1,0.5,0.2,0.8,0.3,1c0.1,0.2,0.3,0.4,0.6,0.6
		c0.3,0.2,0.6,0.2,0.9,0.2c0.4,0,0.7-0.1,0.9-0.3c0.2-0.2,0.3-0.5,0.3-0.7c0-0.2,0-0.3-0.1-0.5c-0.1-0.2-0.2-0.3-0.4-0.4
		c-0.1-0.1-0.5-0.3-1-0.6c-0.5-0.3-0.9-0.6-1.2-0.7c-0.2-0.2-0.4-0.4-0.5-0.6c-0.1-0.2-0.2-0.5-0.2-0.7c0-0.5,0.2-0.9,0.5-1.2
		c0.4-0.3,0.8-0.5,1.3-0.5c0.3,0,0.7,0.1,1.1,0.3c0.2,0.1,0.3,0.1,0.4,0.1c0.1,0,0.1,0,0.2-0.1c0.1,0,0.1-0.1,0.1-0.3H32.4z"/>
	<path d="M37.9,111.3v-0.2h2.3v0.2H40c-0.3,0-0.4,0.1-0.6,0.3c-0.1,0.1-0.1,0.3-0.1,0.7v2.6c0,0.6-0.1,1.1-0.2,1.5
		c-0.1,0.4-0.4,0.7-0.7,0.9c-0.4,0.3-0.9,0.4-1.5,0.4c-0.7,0-1.2-0.1-1.6-0.4c-0.4-0.2-0.6-0.6-0.8-1c-0.1-0.3-0.2-0.8-0.2-1.6v-2.5
		c0-0.4-0.1-0.6-0.2-0.8c-0.1-0.1-0.3-0.2-0.5-0.2h-0.2v-0.2h2.8v0.2h-0.2c-0.3,0-0.5,0.1-0.6,0.3c-0.1,0.1-0.1,0.3-0.1,0.7v2.8
		c0,0.2,0,0.5,0.1,0.9c0,0.3,0.1,0.6,0.2,0.7c0.1,0.2,0.3,0.3,0.5,0.4c0.2,0.1,0.5,0.2,0.8,0.2c0.4,0,0.8-0.1,1.1-0.3
		c0.3-0.2,0.6-0.4,0.7-0.7c0.1-0.3,0.2-0.8,0.2-1.4v-2.6c0-0.4,0-0.6-0.1-0.7c-0.1-0.1-0.3-0.2-0.5-0.2H37.9z"/>
	<path d="M42.3,114.6v1.9c0,0.4,0,0.7,0.1,0.7c0.1,0.1,0.3,0.2,0.5,0.2h0.2v0.2h-2.7v-0.2h0.2c0.3,0,0.5-0.1,0.6-0.3
		c0.1-0.1,0.1-0.3,0.1-0.7v-4.1c0-0.4,0-0.7-0.1-0.7c-0.1-0.1-0.3-0.2-0.5-0.2h-0.2v-0.2h2.3c0.6,0,1,0.1,1.4,0.2
		c0.3,0.1,0.6,0.3,0.8,0.6c0.2,0.3,0.3,0.6,0.3,1c0,0.5-0.2,0.9-0.5,1.3c-0.3,0.3-0.8,0.5-1.5,0.5c-0.2,0-0.3,0-0.5,0
		C42.7,114.6,42.5,114.6,42.3,114.6z M42.3,114.3c0.2,0,0.3,0.1,0.4,0.1c0.1,0,0.2,0,0.3,0c0.3,0,0.6-0.1,0.8-0.4
		c0.2-0.3,0.4-0.6,0.4-1c0-0.3-0.1-0.5-0.2-0.8c-0.1-0.2-0.3-0.4-0.5-0.5c-0.2-0.1-0.4-0.2-0.7-0.2c-0.2,0-0.4,0-0.6,0.1V114.3z"/>
	<path d="M47.7,111.5v2.5h1.4c0.4,0,0.6-0.1,0.7-0.2c0.2-0.1,0.3-0.4,0.3-0.8h0.2v2.2h-0.2c0-0.3-0.1-0.5-0.1-0.6
		c-0.1-0.1-0.1-0.2-0.3-0.3c-0.1-0.1-0.3-0.1-0.6-0.1h-1.4v2.1c0,0.3,0,0.5,0,0.5c0,0.1,0.1,0.1,0.1,0.1c0.1,0,0.2,0.1,0.4,0.1h1.1
		c0.4,0,0.6,0,0.8-0.1c0.2-0.1,0.3-0.1,0.5-0.3c0.2-0.2,0.4-0.5,0.6-0.9h0.2l-0.6,1.6h-4.9v-0.2h0.2c0.2,0,0.3,0,0.4-0.1
		c0.1,0,0.2-0.1,0.2-0.2c0-0.1,0.1-0.3,0.1-0.6v-4.1c0-0.4,0-0.7-0.1-0.7c-0.1-0.1-0.3-0.2-0.6-0.2h-0.2v-0.2h4.9l0.1,1.4h-0.2
		c-0.1-0.3-0.1-0.6-0.2-0.7c-0.1-0.1-0.2-0.2-0.4-0.3c-0.1,0-0.3-0.1-0.7-0.1H47.7z M49.7,109.1l-1.4,1.6h-0.2l0.5-1.6H49.7z"/>
	<path d="M58.1,117.5h-1.7l-2.2-3c-0.2,0-0.3,0-0.4,0c0,0-0.1,0-0.1,0c0,0-0.1,0-0.1,0v1.9c0,0.4,0,0.7,0.1,0.7
		c0.1,0.1,0.3,0.2,0.5,0.2h0.2v0.2h-2.7v-0.2H52c0.3,0,0.5-0.1,0.6-0.3c0.1-0.1,0.1-0.3,0.1-0.7v-4.1c0-0.4,0-0.7-0.1-0.7
		c-0.1-0.1-0.3-0.2-0.5-0.2h-0.2v-0.2H54c0.7,0,1.2,0,1.5,0.1c0.3,0.1,0.6,0.3,0.8,0.5c0.2,0.3,0.3,0.6,0.3,0.9c0,0.4-0.1,0.7-0.4,1
		c-0.3,0.3-0.7,0.5-1.2,0.6l1.3,1.8c0.3,0.4,0.6,0.7,0.8,0.8c0.2,0.1,0.5,0.2,0.8,0.3V117.5z M53.5,114.3c0.1,0,0.1,0,0.2,0
		c0,0,0.1,0,0.1,0c0.6,0,1.1-0.1,1.4-0.4c0.3-0.3,0.5-0.6,0.5-1c0-0.4-0.1-0.7-0.4-1c-0.2-0.3-0.6-0.4-1-0.4c-0.2,0-0.4,0-0.7,0.1
		V114.3z"/>
	<path d="M61,117.4v0.2h-2.7v-0.2h0.2c0.3,0,0.5-0.1,0.6-0.2c0.1-0.1,0.1-0.3,0.1-0.7v-4.1c0-0.3,0-0.5-0.1-0.6
		c0-0.1-0.1-0.1-0.2-0.2c-0.1-0.1-0.3-0.1-0.4-0.1h-0.2v-0.2H61v0.2h-0.2c-0.3,0-0.5,0.1-0.6,0.2c-0.1,0.1-0.1,0.3-0.1,0.7v4.1
		c0,0.3,0,0.5,0.1,0.6c0,0.1,0.1,0.1,0.2,0.2c0.1,0.1,0.3,0.1,0.4,0.1H61z"/>
	<path d="M63.2,111.5v2.5h1.4c0.4,0,0.6-0.1,0.7-0.2c0.2-0.1,0.3-0.4,0.3-0.8h0.2v2.2h-0.2c0-0.3-0.1-0.5-0.1-0.6
		c-0.1-0.1-0.1-0.2-0.3-0.3c-0.1-0.1-0.3-0.1-0.6-0.1h-1.4v2.1c0,0.3,0,0.5,0,0.5c0,0.1,0.1,0.1,0.1,0.1c0.1,0,0.2,0.1,0.4,0.1h1.1
		c0.4,0,0.6,0,0.8-0.1c0.2-0.1,0.3-0.1,0.5-0.3c0.2-0.2,0.4-0.5,0.6-0.9h0.2l-0.5,1.6h-4.9v-0.2h0.2c0.2,0,0.3,0,0.4-0.1
		c0.1,0,0.2-0.1,0.2-0.2c0-0.1,0.1-0.3,0.1-0.6v-4.1c0-0.4,0-0.7-0.1-0.7c-0.1-0.1-0.3-0.2-0.6-0.2h-0.2v-0.2h4.9l0.1,1.4h-0.2
		c-0.1-0.3-0.1-0.6-0.2-0.7c-0.1-0.1-0.2-0.2-0.4-0.3c-0.1,0-0.3-0.1-0.7-0.1H63.2z"/>
	<path d="M71.7,111.3v-0.2h2.3v0.2h-0.2c-0.3,0-0.4,0.1-0.6,0.3c-0.1,0.1-0.1,0.3-0.1,0.7v2.6c0,0.6-0.1,1.1-0.2,1.5
		c-0.1,0.4-0.4,0.7-0.7,0.9c-0.4,0.3-0.9,0.4-1.5,0.4c-0.7,0-1.2-0.1-1.6-0.4c-0.4-0.2-0.6-0.6-0.8-1c-0.1-0.3-0.1-0.8-0.1-1.6v-2.5
		c0-0.4-0.1-0.6-0.2-0.8c-0.1-0.1-0.3-0.2-0.5-0.2h-0.2v-0.2h2.8v0.2h-0.2c-0.3,0-0.5,0.1-0.6,0.3c-0.1,0.1-0.1,0.3-0.1,0.7v2.8
		c0,0.2,0,0.5,0.1,0.9s0.1,0.6,0.2,0.7c0.1,0.2,0.3,0.3,0.5,0.4c0.2,0.1,0.5,0.2,0.8,0.2c0.4,0,0.8-0.1,1.1-0.3
		c0.3-0.2,0.6-0.4,0.7-0.7s0.2-0.8,0.2-1.4v-2.6c0-0.4,0-0.6-0.1-0.7c-0.1-0.1-0.3-0.2-0.5-0.2H71.7z"/>
	<path d="M80.5,117.5h-1.7l-2.2-3c-0.2,0-0.3,0-0.4,0c0,0-0.1,0-0.1,0c0,0-0.1,0-0.1,0v1.9c0,0.4,0,0.7,0.1,0.7
		c0.1,0.1,0.3,0.2,0.5,0.2h0.2v0.2h-2.7v-0.2h0.2c0.3,0,0.5-0.1,0.6-0.3c0.1-0.1,0.1-0.3,0.1-0.7v-4.1c0-0.4,0-0.7-0.1-0.7
		c-0.1-0.1-0.3-0.2-0.5-0.2h-0.2v-0.2h2.3c0.7,0,1.2,0,1.5,0.1c0.3,0.1,0.6,0.3,0.8,0.5c0.2,0.3,0.3,0.6,0.3,0.9
		c0,0.4-0.1,0.7-0.4,1c-0.3,0.3-0.7,0.5-1.2,0.6l1.3,1.8c0.3,0.4,0.6,0.7,0.8,0.8c0.2,0.1,0.5,0.2,0.8,0.3V117.5z M76,114.3
		c0.1,0,0.1,0,0.2,0c0,0,0.1,0,0.1,0c0.6,0,1.1-0.1,1.4-0.4c0.3-0.3,0.5-0.6,0.5-1c0-0.4-0.1-0.7-0.4-1c-0.3-0.3-0.6-0.4-1-0.4
		c-0.2,0-0.4,0-0.7,0.1V114.3z"/>
	<path d="M81,119.2v-0.2c0.3-0.1,0.6-0.3,0.8-0.5c0.2-0.2,0.3-0.5,0.3-0.7c0-0.1,0-0.1,0-0.2c0,0,0,0-0.1,0c0,0-0.1,0-0.2,0.1
		c-0.1,0-0.1,0-0.2,0c-0.2,0-0.3,0-0.4-0.1c-0.1-0.1-0.1-0.2-0.1-0.4c0-0.2,0.1-0.3,0.2-0.4c0.1-0.1,0.3-0.2,0.4-0.2
		c0.2,0,0.4,0.1,0.6,0.3c0.2,0.2,0.2,0.4,0.2,0.7c0,0.3-0.1,0.6-0.3,0.9C81.8,118.8,81.5,119,81,119.2z"/>
	<path d="M13.2,129.1v-0.2h0.2c0.3,0,0.5-0.1,0.6-0.3c0.1-0.1,0.1-0.3,0.1-0.7v-4.1c0-0.4,0-0.6-0.1-0.7c-0.1-0.1-0.3-0.2-0.5-0.2
		h-0.2v-0.2h2.6c1,0,1.7,0.1,2.2,0.3c0.5,0.2,0.9,0.6,1.2,1.1c0.3,0.5,0.5,1.1,0.5,1.8c0,0.9-0.3,1.6-0.8,2.2c-0.6,0.7-1.5,1-2.8,1
		H13.2z M15,128.6c0.4,0.1,0.7,0.1,1,0.1c0.7,0,1.3-0.3,1.8-0.8c0.5-0.5,0.7-1.2,0.7-2.1c0-0.9-0.2-1.6-0.7-2.1
		c-0.5-0.5-1.1-0.8-1.8-0.8c-0.3,0-0.6,0-1,0.1V128.6z"/>
	<path d="M22,123.1v2.5h1.4c0.4,0,0.6-0.1,0.7-0.2c0.2-0.1,0.3-0.4,0.3-0.8h0.2v2.2h-0.2c0-0.3-0.1-0.5-0.1-0.6
		c-0.1-0.1-0.1-0.2-0.3-0.3c-0.1-0.1-0.3-0.1-0.6-0.1H22v2.1c0,0.3,0,0.5,0,0.5c0,0.1,0.1,0.1,0.1,0.1s0.2,0.1,0.4,0.1h1.1
		c0.4,0,0.6,0,0.8-0.1c0.2,0,0.3-0.1,0.5-0.3c0.2-0.2,0.4-0.5,0.6-0.9h0.2l-0.6,1.6h-4.9v-0.2h0.2c0.2,0,0.3,0,0.4-0.1
		c0.1-0.1,0.2-0.1,0.2-0.2c0-0.1,0.1-0.3,0.1-0.6v-4.1c0-0.4,0-0.7-0.1-0.7c-0.1-0.1-0.3-0.2-0.6-0.2h-0.2v-0.2h4.9l0.1,1.4H25
		c-0.1-0.3-0.1-0.6-0.2-0.7c-0.1-0.1-0.2-0.2-0.4-0.3c-0.1,0-0.3-0.1-0.7-0.1H22z"/>
	<path d="M33.8,127.3l0.2,0l-0.5,1.7h-4.9v-0.2h0.2c0.3,0,0.5-0.1,0.6-0.3c0.1-0.1,0.1-0.3,0.1-0.7v-4.1c0-0.4,0-0.6-0.1-0.7
		c-0.1-0.1-0.3-0.2-0.5-0.2h-0.2v-0.2h2.9v0.2c-0.3,0-0.6,0-0.7,0.1c-0.1,0.1-0.2,0.1-0.3,0.3c-0.1,0.1-0.1,0.3-0.1,0.7v4
		c0,0.3,0,0.4,0.1,0.5c0,0.1,0.1,0.1,0.2,0.1c0.1,0,0.3,0,0.7,0h0.5c0.5,0,0.8,0,1-0.1c0.2-0.1,0.4-0.2,0.5-0.4
		C33.5,128,33.6,127.7,33.8,127.3z"/>
	<path d="M38.6,127h-2.5l-0.4,1c-0.1,0.2-0.2,0.4-0.2,0.6c0,0.1,0,0.2,0.1,0.3c0.1,0.1,0.3,0.1,0.6,0.1v0.2h-2v-0.2
		c0.3,0,0.4-0.1,0.5-0.2c0.2-0.2,0.3-0.5,0.5-0.9l2.2-5.3h0.2l2.2,5.3c0.2,0.4,0.3,0.7,0.5,0.8c0.1,0.1,0.3,0.2,0.6,0.2v0.2h-2.5
		v-0.2c0.3,0,0.4-0.1,0.5-0.1c0.1-0.1,0.1-0.2,0.1-0.3c0-0.1-0.1-0.4-0.2-0.7L38.6,127z M38.4,126.6l-1.1-2.6l-1.1,2.6H38.4z"/>
	<path d="M49.5,129.1h-1.7l-2.2-3c-0.2,0-0.3,0-0.4,0c0,0-0.1,0-0.1,0c0,0-0.1,0-0.1,0v1.9c0,0.4,0,0.7,0.1,0.7
		c0.1,0.1,0.3,0.2,0.5,0.2h0.2v0.2h-2.7v-0.2h0.2c0.3,0,0.5-0.1,0.6-0.3c0.1-0.1,0.1-0.3,0.1-0.7v-4.1c0-0.4,0-0.7-0.1-0.7
		c-0.1-0.1-0.3-0.2-0.5-0.2h-0.2v-0.2h2.3c0.7,0,1.2,0.1,1.5,0.2c0.3,0.1,0.6,0.3,0.8,0.5c0.2,0.3,0.3,0.6,0.3,0.9
		c0,0.4-0.1,0.7-0.4,1c-0.3,0.3-0.7,0.5-1.2,0.6l1.3,1.8c0.3,0.4,0.6,0.7,0.8,0.8c0.2,0.1,0.5,0.2,0.8,0.3V129.1z M45,125.8
		c0.1,0,0.1,0,0.2,0c0,0,0.1,0,0.1,0c0.6,0,1.1-0.1,1.4-0.4c0.3-0.3,0.5-0.6,0.5-1c0-0.4-0.1-0.7-0.4-1c-0.2-0.3-0.6-0.4-1-0.4
		c-0.2,0-0.4,0-0.7,0.1V125.8z"/>
	<path d="M51.4,123.1v2.5h1.4c0.4,0,0.6-0.1,0.7-0.2c0.2-0.1,0.3-0.4,0.3-0.8H54v2.2h-0.2c0-0.3-0.1-0.5-0.1-0.6
		c-0.1-0.1-0.1-0.2-0.3-0.3c-0.1-0.1-0.3-0.1-0.6-0.1h-1.4v2.1c0,0.3,0,0.5,0,0.5c0,0.1,0.1,0.1,0.1,0.1c0.1,0,0.2,0.1,0.4,0.1H53
		c0.4,0,0.6,0,0.8-0.1c0.2,0,0.3-0.1,0.5-0.3c0.2-0.2,0.4-0.5,0.6-0.9h0.2l-0.6,1.6h-4.9v-0.2h0.2c0.2,0,0.3,0,0.4-0.1
		c0.1-0.1,0.2-0.1,0.2-0.2c0-0.1,0.1-0.3,0.1-0.6v-4.1c0-0.4,0-0.7-0.1-0.7c-0.1-0.1-0.3-0.2-0.6-0.2h-0.2v-0.2h4.9l0.1,1.4h-0.2
		c-0.1-0.3-0.1-0.6-0.2-0.7c-0.1-0.1-0.2-0.2-0.4-0.3c-0.1,0-0.3-0.1-0.7-0.1H51.4z"/>
	<path d="M61.1,122.6l0.1,2.2h-0.1c-0.2-0.6-0.5-1.1-0.8-1.4c-0.4-0.3-0.8-0.4-1.3-0.4c-0.4,0-0.8,0.1-1.1,0.3
		c-0.3,0.2-0.6,0.6-0.8,1c-0.2,0.5-0.3,1.1-0.3,1.8c0,0.6,0.1,1.1,0.3,1.5c0.2,0.4,0.5,0.7,0.8,1c0.4,0.2,0.8,0.3,1.3,0.3
		c0.4,0,0.8-0.1,1.1-0.3c0.3-0.2,0.7-0.5,1-1.1l0.1,0.1c-0.3,0.6-0.7,1-1.1,1.2c-0.4,0.3-0.9,0.4-1.5,0.4c-1.1,0-1.9-0.4-2.5-1.2
		c-0.4-0.6-0.6-1.3-0.6-2.1c0-0.6,0.1-1.2,0.4-1.8c0.3-0.5,0.7-0.9,1.2-1.2c0.5-0.3,1-0.4,1.6-0.4c0.5,0,0.9,0.1,1.4,0.3
		c0.1,0.1,0.2,0.1,0.3,0.1c0.1,0,0.2,0,0.2-0.1c0.1-0.1,0.1-0.2,0.2-0.4H61.1z"/>
	<path d="M63.7,125.7h3v-1.8c0-0.3,0-0.5-0.1-0.6c0-0.1-0.1-0.1-0.2-0.2c-0.1-0.1-0.3-0.1-0.4-0.1h-0.2v-0.2h2.7v0.2h-0.2
		c-0.2,0-0.3,0-0.4,0.1c-0.1,0-0.2,0.1-0.2,0.2c0,0.1-0.1,0.3-0.1,0.6v4.1c0,0.3,0,0.5,0.1,0.6c0,0.1,0.1,0.1,0.2,0.2
		c0.1,0.1,0.3,0.1,0.4,0.1h0.2v0.2h-2.7v-0.2H66c0.3,0,0.5-0.1,0.6-0.2c0.1-0.1,0.1-0.3,0.1-0.7V126h-3v1.9c0,0.3,0,0.5,0.1,0.6
		c0,0.1,0.1,0.1,0.2,0.2c0.1,0.1,0.3,0.1,0.4,0.1h0.2v0.2h-2.7v-0.2h0.2c0.3,0,0.5-0.1,0.6-0.2c0.1-0.1,0.1-0.3,0.1-0.7v-4.1
		c0-0.3,0-0.5-0.1-0.6c0-0.1-0.1-0.1-0.2-0.2c-0.1-0.1-0.3-0.1-0.4-0.1h-0.2v-0.2h2.7v0.2h-0.2c-0.2,0-0.3,0-0.4,0.1
		c-0.1,0-0.2,0.1-0.2,0.2c0,0.1-0.1,0.3-0.1,0.6V125.7z"/>
	<path d="M70.7,123.1v2.5h1.4c0.4,0,0.6-0.1,0.7-0.2c0.2-0.1,0.3-0.4,0.3-0.8h0.2v2.2h-0.2c0-0.3-0.1-0.5-0.1-0.6
		c-0.1-0.1-0.1-0.2-0.3-0.3c-0.1-0.1-0.3-0.1-0.6-0.1h-1.4v2.1c0,0.3,0,0.5,0,0.5c0,0.1,0.1,0.1,0.1,0.1c0.1,0,0.2,0.1,0.4,0.1h1.1
		c0.4,0,0.6,0,0.8-0.1c0.2,0,0.3-0.1,0.5-0.3c0.2-0.2,0.4-0.5,0.6-0.9h0.2l-0.5,1.6h-4.9v-0.2h0.2c0.2,0,0.3,0,0.4-0.1
		c0.1-0.1,0.2-0.1,0.2-0.2c0-0.1,0.1-0.3,0.1-0.6v-4.1c0-0.4,0-0.7-0.1-0.7c-0.1-0.1-0.3-0.2-0.6-0.2h-0.2v-0.2h4.9l0.1,1.4h-0.2
		c-0.1-0.3-0.1-0.6-0.2-0.7c-0.1-0.1-0.2-0.2-0.4-0.3c-0.1,0-0.3-0.1-0.7-0.1H70.7z"/>
	<path d="M81.1,129.1h-1.7l-2.2-3c-0.2,0-0.3,0-0.4,0c0,0-0.1,0-0.1,0c0,0-0.1,0-0.1,0v1.9c0,0.4,0,0.7,0.1,0.7
		c0.1,0.1,0.3,0.2,0.5,0.2h0.3v0.2h-2.7v-0.2H75c0.3,0,0.5-0.1,0.6-0.3c0.1-0.1,0.1-0.3,0.1-0.7v-4.1c0-0.4,0-0.7-0.1-0.7
		c-0.1-0.1-0.3-0.2-0.5-0.2h-0.2v-0.2h2.3c0.7,0,1.2,0.1,1.5,0.2c0.3,0.1,0.6,0.3,0.8,0.5c0.2,0.3,0.3,0.6,0.3,0.9
		c0,0.4-0.1,0.7-0.4,1c-0.3,0.3-0.7,0.5-1.2,0.6l1.3,1.8c0.3,0.4,0.6,0.7,0.8,0.8c0.2,0.1,0.5,0.2,0.8,0.3V129.1z M76.5,125.8
		c0.1,0,0.1,0,0.2,0c0,0,0.1,0,0.1,0c0.6,0,1.1-0.1,1.4-0.4c0.3-0.3,0.5-0.6,0.5-1c0-0.4-0.1-0.7-0.4-1c-0.3-0.3-0.6-0.4-1-0.4
		c-0.2,0-0.4,0-0.7,0.1V125.8z"/>
	<path d="M86.8,122.6l0.1,2.2h-0.1c-0.2-0.6-0.5-1.1-0.8-1.4c-0.4-0.3-0.8-0.4-1.3-0.4c-0.4,0-0.8,0.1-1.1,0.3
		c-0.3,0.2-0.6,0.6-0.8,1c-0.2,0.5-0.3,1.1-0.3,1.8c0,0.6,0.1,1.1,0.3,1.5c0.2,0.4,0.5,0.7,0.8,1c0.4,0.2,0.8,0.3,1.3,0.3
		c0.4,0,0.8-0.1,1.1-0.3c0.3-0.2,0.7-0.5,1-1.1l0.1,0.1c-0.3,0.6-0.7,1-1.1,1.2c-0.4,0.3-0.9,0.4-1.5,0.4c-1.1,0-1.9-0.4-2.5-1.2
		c-0.4-0.6-0.6-1.3-0.6-2.1c0-0.6,0.1-1.2,0.4-1.8c0.3-0.5,0.7-0.9,1.2-1.2c0.5-0.3,1-0.4,1.6-0.4c0.5,0,0.9,0.1,1.4,0.3
		c0.1,0.1,0.2,0.1,0.3,0.1c0.1,0,0.2,0,0.2-0.1c0.1-0.1,0.1-0.2,0.2-0.4H86.8z"/>
	<path d="M89.4,125.7h3v-1.8c0-0.3,0-0.5-0.1-0.6c0-0.1-0.1-0.1-0.2-0.2c-0.1-0.1-0.3-0.1-0.4-0.1h-0.2v-0.2h2.7v0.2H94
		c-0.2,0-0.3,0-0.4,0.1c-0.1,0-0.2,0.1-0.2,0.2c0,0.1-0.1,0.3-0.1,0.6v4.1c0,0.3,0,0.5,0.1,0.6c0,0.1,0.1,0.1,0.2,0.2
		c0.1,0.1,0.3,0.1,0.4,0.1h0.2v0.2h-2.7v-0.2h0.2c0.3,0,0.5-0.1,0.6-0.2c0.1-0.1,0.1-0.3,0.1-0.7V126h-3v1.9c0,0.3,0,0.5,0.1,0.6
		c0,0.1,0.1,0.1,0.2,0.2c0.1,0.1,0.3,0.1,0.4,0.1h0.2v0.2h-2.7v-0.2h0.2c0.3,0,0.5-0.1,0.6-0.2c0.1-0.1,0.1-0.3,0.1-0.7v-4.1
		c0-0.3,0-0.5-0.1-0.6c0-0.1-0.1-0.1-0.2-0.2c-0.1-0.1-0.3-0.1-0.4-0.1h-0.2v-0.2h2.7v0.2h-0.2c-0.2,0-0.3,0-0.4,0.1
		c-0.1,0-0.2,0.1-0.2,0.2c0,0.1-0.1,0.3-0.1,0.6V125.7z"/>
	<path d="M96.4,123.1v2.5h1.4c0.4,0,0.6-0.1,0.7-0.2c0.2-0.1,0.3-0.4,0.3-0.8H99v2.2h-0.2c0-0.3-0.1-0.5-0.1-0.6
		c-0.1-0.1-0.1-0.2-0.3-0.3c-0.1-0.1-0.3-0.1-0.6-0.1h-1.4v2.1c0,0.3,0,0.5,0,0.5c0,0.1,0.1,0.1,0.1,0.1c0.1,0,0.2,0.1,0.4,0.1H98
		c0.4,0,0.6,0,0.8-0.1c0.2,0,0.3-0.1,0.5-0.3c0.2-0.2,0.4-0.5,0.6-0.9h0.2l-0.5,1.6h-4.9v-0.2h0.2c0.2,0,0.3,0,0.4-0.1
		c0.1-0.1,0.2-0.1,0.2-0.2c0-0.1,0.1-0.3,0.1-0.6v-4.1c0-0.4,0-0.7-0.1-0.7c-0.1-0.1-0.3-0.2-0.6-0.2h-0.2v-0.2h4.9l0.1,1.4h-0.2
		c-0.1-0.3-0.1-0.6-0.2-0.7c-0.1-0.1-0.2-0.2-0.4-0.3c-0.1,0-0.3-0.1-0.7-0.1H96.4z"/>
	<path d="M10.6,134.6v2.5H12c0.4,0,0.6-0.1,0.7-0.2c0.2-0.1,0.3-0.4,0.3-0.8h0.2v2.2H13c0-0.3-0.1-0.5-0.1-0.6
		c-0.1-0.1-0.1-0.2-0.3-0.3c-0.1-0.1-0.3-0.1-0.6-0.1h-1.4v2.1c0,0.3,0,0.5,0,0.5c0,0.1,0.1,0.1,0.1,0.1c0.1,0,0.2,0.1,0.4,0.1h1.1
		c0.4,0,0.6,0,0.8-0.1c0.2-0.1,0.3-0.1,0.5-0.3c0.2-0.2,0.4-0.5,0.6-0.9h0.2l-0.6,1.6H8.7v-0.2H9c0.2,0,0.3,0,0.4-0.1
		c0.1,0,0.2-0.1,0.2-0.2c0-0.1,0.1-0.3,0.1-0.6v-4.1c0-0.4,0-0.7-0.1-0.7c-0.1-0.1-0.3-0.2-0.6-0.2H8.7v-0.2h4.9l0.1,1.4h-0.2
		c-0.1-0.3-0.1-0.6-0.2-0.7c-0.1-0.1-0.2-0.2-0.4-0.3c-0.1,0-0.3-0.1-0.7-0.1H10.6z"/>
	<path d="M20,134.3l0.1,1.5h-0.2c0-0.3-0.1-0.5-0.1-0.6c-0.1-0.2-0.2-0.3-0.4-0.4c-0.2-0.1-0.4-0.1-0.6-0.1h-0.9v4.9
		c0,0.4,0,0.6,0.1,0.7c0.1,0.1,0.3,0.2,0.6,0.2h0.2v0.2H16v-0.2h0.2c0.3,0,0.5-0.1,0.6-0.2c0.1-0.1,0.1-0.3,0.1-0.7v-4.9h-0.8
		c-0.3,0-0.5,0-0.6,0.1c-0.2,0.1-0.3,0.2-0.4,0.3c-0.1,0.2-0.2,0.4-0.2,0.7h-0.2l0.1-1.5H20z"/>
	<path d="M22.7,140.7v-0.2H23c0.3,0,0.5-0.1,0.6-0.3c0.1-0.1,0.1-0.3,0.1-0.7v-4.1c0-0.4,0-0.6-0.1-0.7c-0.1-0.1-0.3-0.2-0.5-0.2
		h-0.2v-0.2h2.6c1,0,1.7,0.1,2.2,0.3c0.5,0.2,0.9,0.6,1.2,1.1c0.3,0.5,0.5,1.1,0.5,1.8c0,0.9-0.3,1.6-0.8,2.2c-0.6,0.7-1.5,1-2.8,1
		H22.7z M24.5,140.2c0.4,0.1,0.7,0.1,1,0.1c0.7,0,1.3-0.3,1.8-0.8c0.5-0.5,0.7-1.2,0.7-2.1c0-0.9-0.2-1.6-0.7-2.1
		c-0.5-0.5-1.1-0.8-1.8-0.8c-0.3,0-0.6,0-1,0.1V140.2z"/>
	<path d="M31.5,134.6v2.5h1.4c0.4,0,0.6-0.1,0.7-0.2c0.2-0.1,0.3-0.4,0.3-0.8h0.2v2.2h-0.2c0-0.3-0.1-0.5-0.1-0.6
		c-0.1-0.1-0.1-0.2-0.3-0.3c-0.1-0.1-0.3-0.1-0.6-0.1h-1.4v2.1c0,0.3,0,0.5,0,0.5c0,0.1,0.1,0.1,0.1,0.1c0.1,0,0.2,0.1,0.4,0.1h1.1
		c0.4,0,0.6,0,0.8-0.1c0.2-0.1,0.3-0.1,0.5-0.3c0.2-0.2,0.4-0.5,0.6-0.9h0.2l-0.6,1.6h-4.9v-0.2h0.2c0.2,0,0.3,0,0.4-0.1
		c0.1,0,0.2-0.1,0.2-0.2c0-0.1,0.1-0.3,0.1-0.6v-4.1c0-0.4,0-0.7-0.1-0.7c-0.1-0.1-0.3-0.2-0.6-0.2h-0.2v-0.2h4.9l0.1,1.4h-0.2
		c-0.1-0.3-0.1-0.6-0.2-0.7c-0.1-0.1-0.2-0.2-0.4-0.3c-0.1,0-0.3-0.1-0.7-0.1H31.5z"/>
	<path d="M43.3,138.9l0.2,0l-0.5,1.7H38v-0.2h0.2c0.3,0,0.5-0.1,0.6-0.3c0.1-0.1,0.1-0.3,0.1-0.7v-4.1c0-0.4,0-0.6-0.1-0.7
		c-0.1-0.1-0.3-0.2-0.5-0.2H38v-0.2h2.9v0.2c-0.3,0-0.6,0-0.7,0.1c-0.1,0.1-0.2,0.1-0.3,0.3c-0.1,0.1-0.1,0.3-0.1,0.7v4
		c0,0.3,0,0.4,0.1,0.5c0,0.1,0.1,0.1,0.2,0.1c0.1,0,0.3,0,0.7,0h0.5c0.5,0,0.8,0,1-0.1c0.2-0.1,0.4-0.2,0.5-0.4
		C43,139.6,43.2,139.3,43.3,138.9z"/>
	<path d="M43.9,136.6v-0.2c0.3-0.2,0.5-0.4,0.7-0.5c0.1-0.1,0.1-0.3,0.1-0.4c0-0.1,0-0.2-0.1-0.2c0,0-0.1-0.1-0.1-0.1
		c0,0-0.1,0-0.1,0c-0.1,0-0.1,0-0.2,0c-0.1,0-0.2,0-0.3-0.1c-0.1-0.1-0.1-0.2-0.1-0.4c0-0.2,0-0.3,0.1-0.4c0.1-0.1,0.3-0.2,0.5-0.2
		c0.2,0,0.4,0.1,0.6,0.3c0.2,0.2,0.3,0.4,0.3,0.7c0,0.4-0.1,0.7-0.4,1C44.5,136.3,44.3,136.5,43.9,136.6z"/>
	<path d="M49,140.5v0.2h-2.7v-0.2h0.2c0.3,0,0.5-0.1,0.6-0.2c0.1-0.1,0.1-0.3,0.1-0.7v-4.1c0-0.3,0-0.5-0.1-0.6
		c0-0.1-0.1-0.1-0.2-0.2c-0.1-0.1-0.3-0.1-0.4-0.1h-0.2v-0.2H49v0.2h-0.2c-0.3,0-0.5,0.1-0.6,0.2c-0.1,0.1-0.1,0.3-0.1,0.7v4.1
		c0,0.3,0,0.5,0.1,0.6c0,0.1,0.1,0.1,0.2,0.2c0.1,0.1,0.3,0.1,0.4,0.1H49z"/>
	<path d="M49.1,134.3h1.7l3.9,4.8v-3.7c0-0.4,0-0.6-0.1-0.7c-0.1-0.1-0.3-0.2-0.6-0.2h-0.2v-0.2H56v0.2h-0.2c-0.3,0-0.5,0.1-0.6,0.2
		c-0.1,0.1-0.1,0.3-0.1,0.7v5.4H55l-4.2-5.1v3.9c0,0.4,0,0.6,0.1,0.7c0.1,0.1,0.3,0.2,0.6,0.2h0.2v0.2h-2.2v-0.2h0.2
		c0.3,0,0.5-0.1,0.6-0.2c0.1-0.1,0.1-0.3,0.1-0.7v-4.4c-0.2-0.2-0.3-0.4-0.4-0.4c-0.1-0.1-0.2-0.1-0.4-0.2c-0.1,0-0.2,0-0.4,0V134.3
		z"/>
	<path d="M56.1,134.3h1.7l3.9,4.8v-3.7c0-0.4,0-0.6-0.1-0.7c-0.1-0.1-0.3-0.2-0.6-0.2h-0.2v-0.2H63v0.2h-0.2c-0.3,0-0.5,0.1-0.6,0.2
		c-0.1,0.1-0.1,0.3-0.1,0.7v5.4h-0.2l-4.2-5.1v3.9c0,0.4,0,0.6,0.1,0.7c0.1,0.1,0.3,0.2,0.5,0.2h0.2v0.2h-2.2v-0.2h0.2
		c0.3,0,0.5-0.1,0.6-0.2c0.1-0.1,0.1-0.3,0.1-0.7v-4.4c-0.2-0.2-0.3-0.4-0.4-0.4c-0.1-0.1-0.2-0.1-0.4-0.2c-0.1,0-0.2,0-0.4,0V134.3
		z"/>
	<path d="M66.7,134.1c0.8,0,1.5,0.3,2.2,0.9c0.6,0.6,0.9,1.4,0.9,2.4c0,1-0.3,1.8-0.9,2.4c-0.6,0.6-1.4,1-2.2,1
		c-0.9,0-1.6-0.3-2.2-0.9c-0.6-0.6-0.9-1.4-0.9-2.4c0-1,0.3-1.8,1-2.5C65.1,134.4,65.8,134.1,66.7,134.1z M66.6,134.5
		c-0.6,0-1,0.2-1.4,0.6c-0.4,0.5-0.6,1.3-0.6,2.3c0,1,0.2,1.8,0.7,2.4c0.3,0.4,0.8,0.6,1.4,0.6c0.6,0,1.1-0.2,1.5-0.7
		c0.4-0.5,0.6-1.2,0.6-2.2c0-1.1-0.2-1.9-0.6-2.4C67.7,134.7,67.2,134.5,66.6,134.5z"/>
	<path d="M76.9,134.3v0.2c-0.2,0-0.4,0.1-0.5,0.2c-0.2,0.2-0.3,0.4-0.4,0.7l-2.2,5.4h-0.2l-2.4-5.5c-0.1-0.3-0.2-0.5-0.3-0.5
		c-0.1-0.1-0.2-0.2-0.3-0.2c-0.1-0.1-0.3-0.1-0.5-0.1v-0.2h2.6v0.2c-0.3,0-0.5,0.1-0.6,0.2c-0.1,0.1-0.1,0.2-0.1,0.3
		c0,0.2,0.1,0.4,0.2,0.7l1.6,3.7l1.5-3.7c0.1-0.4,0.2-0.6,0.2-0.8c0-0.1,0-0.2-0.1-0.3c-0.1-0.1-0.2-0.1-0.5-0.2c0,0,0,0-0.1,0v-0.2
		H76.9z"/>
	<path d="M80.2,138.5h-2.5l-0.4,1c-0.1,0.2-0.2,0.4-0.2,0.6c0,0.1,0,0.2,0.1,0.3c0.1,0.1,0.3,0.1,0.6,0.1v0.2h-2v-0.2
		c0.3,0,0.4-0.1,0.5-0.2c0.2-0.2,0.3-0.5,0.5-0.9l2.2-5.3h0.2l2.2,5.3c0.2,0.4,0.3,0.7,0.5,0.8c0.1,0.1,0.3,0.2,0.6,0.2v0.2h-2.5
		v-0.2c0.3,0,0.4-0.1,0.5-0.1c0.1-0.1,0.1-0.2,0.1-0.3c0-0.1-0.1-0.4-0.2-0.7L80.2,138.5z M80.1,138.2l-1.1-2.6l-1.1,2.6H80.1z"/>
	<path d="M87.3,134.3l0.1,1.5h-0.2c0-0.3-0.1-0.5-0.1-0.6c-0.1-0.2-0.2-0.3-0.4-0.4c-0.2-0.1-0.4-0.1-0.6-0.1h-0.9v4.9
		c0,0.4,0,0.6,0.1,0.7c0.1,0.1,0.3,0.2,0.6,0.2H86v0.2h-2.7v-0.2h0.2c0.3,0,0.5-0.1,0.6-0.2c0.1-0.1,0.1-0.3,0.1-0.7v-4.9h-0.8
		c-0.3,0-0.5,0-0.6,0.1c-0.2,0.1-0.3,0.2-0.4,0.3c-0.1,0.2-0.2,0.4-0.2,0.7H82l0.1-1.5H87.3z"/>
	<path d="M90.6,140.5v0.2h-2.7v-0.2h0.2c0.3,0,0.5-0.1,0.6-0.2c0.1-0.1,0.1-0.3,0.1-0.7v-4.1c0-0.3,0-0.5-0.1-0.6
		c0-0.1-0.1-0.1-0.2-0.2c-0.1-0.1-0.3-0.1-0.4-0.1h-0.2v-0.2h2.7v0.2h-0.2c-0.3,0-0.4,0.1-0.6,0.2c-0.1,0.1-0.1,0.3-0.1,0.7v4.1
		c0,0.3,0,0.5,0.1,0.6c0,0.1,0.1,0.1,0.2,0.2c0.1,0.1,0.3,0.1,0.4,0.1H90.6z"/>
	<path d="M94.3,134.1c0.8,0,1.5,0.3,2.2,0.9c0.6,0.6,0.9,1.4,0.9,2.4c0,1-0.3,1.8-0.9,2.4c-0.6,0.6-1.4,1-2.2,1
		c-0.9,0-1.6-0.3-2.2-0.9c-0.6-0.6-0.9-1.4-0.9-2.4c0-1,0.3-1.8,1-2.5C92.8,134.4,93.5,134.1,94.3,134.1z M94.2,134.5
		c-0.6,0-1,0.2-1.4,0.6c-0.4,0.5-0.6,1.3-0.6,2.3c0,1,0.2,1.8,0.7,2.4c0.3,0.4,0.8,0.6,1.4,0.6c0.6,0,1.1-0.2,1.5-0.7
		c0.4-0.5,0.6-1.2,0.6-2.2c0-1.1-0.2-1.9-0.6-2.4C95.3,134.7,94.9,134.5,94.2,134.5z"/>
	<path d="M97.6,134.3h1.7l3.9,4.8v-3.7c0-0.4,0-0.6-0.1-0.7c-0.1-0.1-0.3-0.2-0.6-0.2h-0.2v-0.2h2.2v0.2h-0.2
		c-0.3,0-0.5,0.1-0.6,0.2c-0.1,0.1-0.1,0.3-0.1,0.7v5.4h-0.2l-4.2-5.1v3.9c0,0.4,0,0.6,0.1,0.7c0.1,0.1,0.3,0.2,0.5,0.2h0.2v0.2H98
		v-0.2h0.2c0.3,0,0.5-0.1,0.6-0.2c0.1-0.1,0.1-0.3,0.1-0.7v-4.4c-0.2-0.2-0.3-0.4-0.4-0.4c-0.1-0.1-0.2-0.1-0.4-0.2
		c-0.1,0-0.2,0-0.4,0V134.3z"/>
</g>
</svg>
