<?xml version="1.0" encoding="utf-8"?>
<!-- Generator: Adobe Illustrator 22.0.1, SVG Export Plug-In . SVG Version: 6.00 Build 0)  -->
<svg version="1.1" id="Calque_1" xmlns="http://www.w3.org/2000/svg" xmlns:xlink="http://www.w3.org/1999/xlink" x="0px" y="0px"
	 viewBox="0 0 43 43" style="enable-background:new 0 0 43 43;" xml:space="preserve">
<style type="text/css">
	.st0{fill:none;stroke:#000000;stroke-miterlimit:10;}
</style>
<title>ic_Bouton_Istex</title>
<path class="st0" d="M37.5,20.5h-3v-8c0-2.2-1.8-4-4-4h-8v-3c0-2.8-2.2-5-5-5s-5,2.2-5,5v3h-8c-2.2,0-4,1.8-4,4v7.6h3
	c3,0,5.4,2.4,5.4,5.4s-2.4,5.4-5.4,5.4h-3v7.6c0,2.2,1.8,4,4,4h7.6v-3c0-3,2.4-5.4,5.4-5.4s5.4,2.4,5.4,5.4l0,0v3h7.6
	c2.2,0,4-1.8,4-4v-8h3c2.8,0,5-2.2,5-5S40.3,20.5,37.5,20.5z"/>
</svg>
