<?xml version="1.0" encoding="utf-8"?>
<!-- Generator: Adobe Illustrator 22.0.1, SVG Export Plug-In . SVG Version: 6.00 Build 0)  -->
<svg version="1.1" id="Calque_1" xmlns="http://www.w3.org/2000/svg" xmlns:xlink="http://www.w3.org/1999/xlink" x="0px" y="0px"
	 viewBox="0 0 90.2 102" style="enable-background:new 0 0 90.2 102;" xml:space="preserve">
<style type="text/css">
	.st0{fill:none;stroke:#000000;stroke-width:2;stroke-miterlimit:10;}
</style>
<title>ic_google_scholar</title>
<path class="st0" d="M47.3,62.8c-3.1-3.8-4.1-7.8-2.4-12.5c-6.4,0.5-12.1-0.5-16.9-4.5s-6.8-9.5-6.6-15.9H2.1
	c0.5-0.7,0.8-1.1,1.2-1.5C12,19.7,20.8,10.9,29.6,2.2C30.2,1.5,31,1.1,32,1c18.6,0,37.2,0,55.7,0c0.3,0,0.6,0.1,0.8,0.2
	c-0.4,0.5-0.9,1-1.4,1.5c-3,1.9-4.4,5.5-3.5,8.9c0.3,1,0.7,1.9,1.1,2.8c0.5,0.9,0.8,2,1,3c0.1,9.3,0.1,18.5,0,27.8
	c0,2.4-1.4,4-3.4,4s-3.5-1.5-3.5-3.9c0-9.3,0-18.7,0-28c-0.1-0.8,0.2-1.6,0.6-2.2c1.6-1.5,0.9-3.3,1.1-5.6
	c-4.3,4.3-8.3,8.2-12.1,12.1c-0.3,0.3-0.3,1.2-0.1,1.8c2.3,8.5,0,15.5-6.8,21.1c-1.7,1.3-3.2,2.8-4.6,4.3c-2.1,2.5-1.9,5.2,0.5,7.4
	c3.1,2.8,6.4,5.5,9.6,8.3c9.7,8.5,7.5,21.5-1.2,28.8c-5.6,4.7-12.2,7-19.4,7.6S32.3,101,25.6,98c-7-3.1-10.9-8.8-10.4-15.4
	c0.4-5.6,3.5-10.6,8.3-13.4c6.1-4,13-5.2,20.1-6L47.3,62.8z M26.2,79.3c0,7,2.8,10.8,7.5,13.3c6.8,3.6,14.7,4.2,22,1.8
	c9.4-3,12.2-13,5.5-20.1c-2.6-2.8-6-4.9-9-7.2c-0.5-0.4-1.2-0.5-1.8-0.5c-5.8,0-11.5,0.6-16.8,3.2C29.2,72,26.3,75.5,26.2,79.3z
	 M58.2,33.1c-0.4-5.7-2.1-12.2-7.3-17.3c-3.1-3.1-6.7-4.2-11-2.9c-4.1,1.1-7,4.6-7.4,8.8c-1.1,7.5,1.1,15,6,20.8
	c1.7,2.1,4.1,3.5,6.8,4C52.6,47.8,58.2,42.6,58.2,33.1L58.2,33.1z"/>
</svg>
