<?xml version="1.0" encoding="utf-8"?>
<!-- Generator: Adobe Illustrator 22.0.1, SVG Export Plug-In . SVG Version: 6.00 Build 0)  -->
<svg version="1.1" id="Calque_1" xmlns="http://www.w3.org/2000/svg" xmlns:xlink="http://www.w3.org/1999/xlink" x="0px" y="0px"
	 viewBox="0 0 48.8 33" style="enable-background:new 0 0 48.8 33;" xml:space="preserve">
<style type="text/css">
	.st0{fill:none;stroke:#000000;stroke-miterlimit:10;}
</style>
<title>ic_Istex_API</title>
<path class="st0" d="M39,12.6C37.3,4.4,29.4-0.8,21.3,0.8C16.9,1.7,13.1,4.5,11,8.6C4.4,9.4-0.2,15.4,0.6,22
	c0.8,5.9,5.7,10.4,11.7,10.5h26c5.5,0,10-4.5,10-10C48.3,17.2,44.2,12.9,39,12.6z"/>
<path class="st0" d="M31.2,22.3H20.9v2.9h10.3v4.4l5.9-5.9l-5.9-5.9V22.3z M17.7,21.8v-4.4H28v-2.9H17.7v-4.4l-5.9,5.9L17.7,21.8z"
	/>
</svg>
