<?xml version="1.0" encoding="utf-8"?>
<!-- Generator: Adobe Illustrator 22.0.1, SVG Export Plug-In . SVG Version: 6.00 Build 0)  -->
<svg version="1.1" id="Calque_1" xmlns="http://www.w3.org/2000/svg" xmlns:xlink="http://www.w3.org/1999/xlink" x="0px" y="0px"
	 viewBox="0 0 495.3 534.2" style="enable-background:new 0 0 495.3 534.2;" xml:space="preserve">
<style type="text/css">
	.st0{fill:none;stroke:#000000;stroke-width:8.76;stroke-miterlimit:10;}
</style>
<title>ic_SPARKL</title>
<path class="st0" d="M439.9,349.2c-3.2-1.7-6.6-3.2-10-4.5l2.4-0.2c0,0-21.4-9.5-23.2-78.3s20.4-80.5,20.4-80.5l-3.2,0.1
	c47.2-24.2,65.8-82,41.6-129.2C443.8,9.4,385.9-9.2,338.8,15c-37.1,19-57.7,59.7-51,100.9l-1.1-1.7c0,0,5.6,25-52.9,61.3
	s-84.9,18.3-84.9,18.3l1.7,2.5c-1.7-1-3.3-2.1-5-3C98.7,168.3,40.6,186,15.7,232.8S8.5,337.7,55.3,362.7
	c33.9,18,75.3,14.1,105.2-9.9l-0.6,1.2c0,0,21.3-17.5,82.7,15.4c48.5,26,55.7,51.5,56.6,61.1c-1.9,52.9,39.4,97.4,92.4,99.3
	s97.4-39.4,99.3-92.4C492.2,400.7,472.4,366.4,439.9,349.2L439.9,349.2z M145.4,216.9c-12.1-11.1-41.7-9.1-67.5,7.8
	c7.6,8,7.4,20.6-0.6,28.3c-3.5,3.4-8.2,5.4-13.1,5.5c-1.7,0.1-3.4-0.1-5.1-0.5c-0.5,0-1-0.1-1.5-0.3c-7.3-2.5-12.3,2.9-14.1,5.2
	c-13.4,25.5-13.7,52.1-0.4,65c-26.9-25.4-26.3-70.4,1.6-100.9c28.2-30.8,73.5-35.4,101.2-10.1L145.4,216.9z M325.5,46.4
	c28.1-30.8,73.4-35.4,101.1-10.1h-0.4c-12.1-11.1-41.8-9.1-67.5,7.8c7.6,8,7.4,20.6-0.6,28.3c-3.4,3.3-7.9,5.2-12.6,5.5
	c-1.9,0.1-3.7-0.1-5.6-0.5c-0.5,0-1-0.1-1.5-0.3c-7.3-2.4-12.3,2.9-14,5.2c-13.4,25.5-13.7,52.1-0.4,65
	C296.9,121.8,297.5,76.9,325.5,46.4L325.5,46.4z M255.2,342.6c-50.5-27.1-58-49.8-59.1-56.6c0.7-8.2,0.3-16.4-1.1-24.5l0.3,0.5
	c0,0-4.1-22,53.7-57.9c51.7-32.1,75.2-25.7,79.6-24c2.8,1.9,5.8,3.7,8.8,5.3c5.7,3,11.7,5.4,17.9,7.3c7.1,6.8,20.2,26,21.6,76.6
	c1.4,51-13.6,70.6-21.7,77.6c-8.5,3.9-16.3,8.9-23.3,15.1C324,364.6,301.8,367.6,255.2,342.6z M442.6,369.8
	c-12.1-11.1-41.7-9.1-67.5,7.8c3.3,3.5,5.3,8,5.5,12.8c0.5,11.1-8.1,20.5-19.2,21c-1.7,0.1-3.4-0.1-5.1-0.5c-0.5,0-1-0.1-1.5-0.3
	c-7.3-2.5-12.3,2.9-14.1,5.2c-13.4,25.5-13.7,52.1-0.4,65c-26.9-25.4-26.3-70.4,1.6-100.9c28.2-30.8,73.5-35.4,101.2-10L442.6,369.8
	z"/>
</svg>
