<svg xmlns="http://www.w3.org/2000/svg" viewBox="0 0 90.23 101.98"><title>ic_google_scholar</title><path d="M47.27,62.76C44.18,58.92,43.2,55,44.84,50.3c-6.4.5-12.13-.45-16.9-4.54s-6.75-9.52-6.62-15.86H2.08c.53-.66.82-1.1,1.19-1.47Q16.4,15.28,29.54,2.15A3.9,3.9,0,0,1,31.94,1C50.52,1,69.1,1,87.68,1a6.09,6.09,0,0,1,.85.17,10.17,10.17,0,0,1-1.38,1.48,8.18,8.18,0,0,0-3.54,8.86,18.54,18.54,0,0,0,1.09,2.79,9.65,9.65,0,0,1,1,3q.12,13.88,0,27.76c0,2.42-1.43,4-3.45,4s-3.5-1.52-3.51-3.93q-.06-14,0-28a3.39,3.39,0,0,1,.64-2.24c1.62-1.52.92-3.28,1.13-5.58-4.33,4.31-8.25,8.17-12.09,12.11-.32.33-.26,1.22-.12,1.78,2.26,8.5,0,15.5-6.77,21.1a36.22,36.22,0,0,0-4.59,4.34c-2.1,2.49-1.94,5.19.46,7.38,3.11,2.85,6.42,5.48,9.59,8.27,9.67,8.52,7.46,21.51-1.16,28.85-5.58,4.74-12.23,7-19.43,7.58S32.29,101,25.63,98c-7-3.1-10.95-8.81-10.43-15.41a17.2,17.2,0,0,1,8.34-13.45c6.12-4,13.05-5.22,20.12-6ZM26.2,79.33c0,7,2.8,10.83,7.51,13.27a28.14,28.14,0,0,0,22,1.76c9.44-3,12.18-13,5.49-20.07-2.63-2.77-6-4.88-9-7.22a3.19,3.19,0,0,0-1.85-.52c-5.8,0-11.53.55-16.78,3.23C29.2,72,26.26,75.44,26.2,79.33Zm32-46.21c-.41-5.69-2.1-12.19-7.27-17.34-3.11-3.1-6.74-4.22-11-2.86a10.12,10.12,0,0,0-7.42,8.84,26,26,0,0,0,6,20.76,11.17,11.17,0,0,0,6.81,4c7.31,1.3,12.86-3.91,12.88-13.37Z" transform="translate(0.01 0.02)" fill="none" stroke="#fff" stroke-miterlimit="10" stroke-width="2"/></svg>