<svg xmlns="http://www.w3.org/2000/svg" viewBox="0 0 495.29 534.24"><title>ic_SPARKL</title><path d="M439.83,349a102.05,102.05,0,0,0-10-4.53l2.4-.19S410.82,334.8,409,266s20.4-80.54,20.4-80.54l-3.19.14a96,96,0,1,0-138.54-70l-1.1-1.68s5.64,25-52.89,61.29-84.92,18.25-84.92,18.25l1.67,2.48c-1.67-1-3.27-2.09-5-3a96,96,0,1,0,15,159.6l-.63,1.22s21.27-17.55,82.69,15.42c48.47,26,55.66,51.5,56.59,61.08A95.91,95.91,0,1,0,439.85,349ZM145.33,216.67c-12.13-11.08-41.73-9.13-67.5,7.76A20,20,0,0,1,64.1,258.24a19.45,19.45,0,0,1-5.1-.49,3.5,3.5,0,0,1-1.5-.27c-7.32-2.46-12.33,2.9-14.06,5.22C30,288.2,29.72,314.85,43,327.7c-26.89-25.43-26.31-70.35,1.61-100.89C72.8,196,118.1,191.45,145.79,216.75Zm180-170.52c28.11-30.84,73.44-35.36,101.11-10.06H426C413.85,25,384.25,27,358.46,43.84a20,20,0,0,1-13.25,33.79,20,20,0,0,1-5.56-.47,3.72,3.72,0,0,1-1.51-.28c-7.32-2.45-12.32,2.94-14.05,5.23-13.44,25.5-13.72,52.15-.43,65-26.87-25.5-26.28-70.42,1.64-101ZM255.07,342.38c-50.51-27.12-58-49.78-59.11-56.58a95,95,0,0,0-1.14-24.51l.3.46s-4.11-22,53.69-57.94c51.74-32.1,75.25-25.72,79.63-24a97,97,0,0,0,8.8,5.32,94.81,94.81,0,0,0,17.9,7.25c7.12,6.77,20.21,26,21.57,76.58,1.39,51-13.58,70.62-21.74,77.56a94.87,94.87,0,0,0-23.34,15.07C323.87,364.38,301.72,367.38,255.07,342.38ZM442.44,369.6c-12.13-11.08-41.72-9.14-67.51,7.75a19.85,19.85,0,0,1,5.51,12.79,20.13,20.13,0,0,1-19.19,21,19.49,19.49,0,0,1-5.11-.49,3.87,3.87,0,0,1-1.5-.27c-7.33-2.46-12.33,2.93-14.06,5.22-13.44,25.5-13.73,52.15-.43,65-26.89-25.43-26.31-70.35,1.62-100.91,28.16-30.83,73.46-35.35,101.16-10Z" transform="translate(0.12 0.23)" fill="none" stroke="#fff" stroke-miterlimit="10" stroke-width="8.76"/></svg>